<?xml version="1.0" encoding="UTF-8" standalone="no"?><!DOCTYPE svg PUBLIC "-//W3C//DTD SVG 1.1//EN" "http://www.w3.org/Graphics/SVG/1.1/DTD/svg11.dtd"><svg width="100%" height="100%" viewBox="0 0 252 246" version="1.1" xmlns="http://www.w3.org/2000/svg" xmlns:xlink="http://www.w3.org/1999/xlink" xml:space="preserve" xmlns:serif="http://www.serif.com/" style="fill-rule:evenodd;clip-rule:evenodd;stroke-linejoin:round;stroke-miterlimit:2;"><g><path d="M-125.806,-144.547c-69.473,0 -125.809,56.323 -125.809,125.809c0,55.583 36.048,102.741 86.036,119.377c6.287,1.164 8.596,-2.729 8.596,-6.052c-0,-3 -0.117,-12.911 -0.171,-23.423c-35,7.61 -42.386,-14.844 -42.386,-14.844c-5.723,-14.539 -13.968,-18.408 -13.968,-18.408c-11.415,-7.809 0.86,-7.648 0.86,-7.648c12.633,0.887 19.286,12.967 19.286,12.967c11.22,19.231 29.431,13.67 36.61,10.456c1.129,-8.129 4.389,-13.681 7.987,-16.823c-27.943,-3.179 -57.318,-13.969 -57.318,-62.175c-0,-13.733 4.914,-24.958 12.962,-33.769c-1.306,-3.169 -5.612,-15.964 1.219,-33.294c-0,0 10.565,-3.379 34.606,12.898c10.036,-2.787 20.798,-4.185 31.49,-4.235c10.691,0.05 21.462,1.448 31.516,4.235c24.013,-16.277 34.563,-12.898 34.563,-12.898c6.848,17.33 2.539,30.125 1.233,33.294c8.067,8.811 12.948,20.036 12.948,33.769c0,48.323 -29.431,58.96 -57.446,62.075c4.513,3.904 8.534,11.56 8.534,23.298c-0,16.833 -0.146,30.381 -0.146,34.525c-0,3.348 2.264,7.271 8.642,6.035c49.96,-16.654 85.962,-63.794 85.962,-119.36c0,-69.486 -56.327,-125.809 -125.806,-125.809Z" style="fill:#181717;"/><path d="M125.808,0c-69.473,0 -125.808,56.323 -125.808,125.806c0,55.586 36.048,102.744 86.035,119.379c6.288,1.165 8.596,-2.729 8.596,-6.052c0,-3 -0.116,-12.91 -0.171,-23.423c-35,7.611 -42.385,-14.843 -42.385,-14.843c-5.723,-14.542 -13.969,-18.409 -13.969,-18.409c-11.414,-7.808 0.861,-7.648 0.861,-7.648c12.633,0.886 19.285,12.965 19.285,12.965c11.221,19.233 29.431,13.673 36.61,10.458c1.13,-8.129 4.39,-13.683 7.988,-16.823c-27.944,-3.181 -57.319,-13.968 -57.319,-62.175c0,-13.735 4.915,-24.958 12.963,-33.768c-1.307,-3.171 -5.613,-15.965 1.218,-33.294c0,-0 10.565,-3.381 34.607,12.896c10.035,-2.788 20.798,-4.186 31.489,-4.234c10.692,0.048 21.463,1.446 31.517,4.234c24.012,-16.277 34.562,-12.896 34.562,-12.896c6.848,17.329 2.54,30.123 1.234,33.294c8.066,8.81 12.948,20.033 12.948,33.768c-0,48.321 -29.432,58.961 -57.446,62.075c4.512,3.905 8.533,11.561 8.533,23.298c0,16.832 -0.146,30.379 -0.146,34.525c0,3.348 2.265,7.271 8.642,6.036c49.96,-16.654 85.963,-63.796 85.963,-119.363c-0,-69.483 -56.327,-125.806 -125.807,-125.806Z" style="fill:#fff;"/><path d="M47.65,180.631c-0.277,0.627 -1.26,0.813 -2.156,0.384c-0.913,-0.411 -1.425,-1.263 -1.129,-1.89c0.27,-0.644 1.256,-0.821 2.166,-0.394c0.915,0.413 1.436,1.273 1.119,1.9Z" style="fill:#fff;fill-rule:nonzero;"/><path d="M52.746,186.315c-0.6,0.556 -1.773,0.297 -2.569,-0.582c-0.823,-0.877 -0.977,-2.05 -0.369,-2.614c0.619,-0.556 1.757,-0.296 2.582,0.581c0.822,0.888 0.983,2.052 0.356,2.615Z" style="fill:#fff;fill-rule:nonzero;"/><path d="M57.706,193.56c-0.771,0.536 -2.031,0.034 -2.81,-1.085c-0.771,-1.119 -0.771,-2.46 0.017,-2.998c0.781,-0.537 2.022,-0.054 2.812,1.056c0.769,1.136 0.769,2.48 -0.019,3.027Z" style="fill:#fff;fill-rule:nonzero;"/><path d="M64.502,200.56c-0.689,0.761 -2.158,0.557 -3.233,-0.481c-1.1,-1.014 -1.407,-2.454 -0.715,-3.214c0.698,-0.763 2.175,-0.548 3.259,0.481c1.091,1.012 1.424,2.462 0.689,3.214Z" style="fill:#fff;fill-rule:nonzero;"/><path d="M73.877,204.625c-0.304,0.985 -1.719,1.433 -3.144,1.015c-1.423,-0.432 -2.354,-1.586 -2.066,-2.582c0.295,-0.991 1.716,-1.458 3.152,-1.01c1.421,0.429 2.354,1.575 2.058,2.577Z" style="fill:#fff;fill-rule:nonzero;"/><path d="M84.173,205.379c0.035,1.038 -1.173,1.898 -2.669,1.915c-1.504,0.035 -2.721,-0.804 -2.737,-1.825c-0,-1.048 1.181,-1.9 2.685,-1.925c1.496,-0.029 2.721,0.804 2.721,1.835Z" style="fill:#fff;fill-rule:nonzero;"/><path d="M93.754,203.748c0.179,1.012 -0.86,2.052 -2.346,2.327c-1.46,0.269 -2.812,-0.356 -2.998,-1.36c-0.181,-1.038 0.878,-2.078 2.336,-2.346c1.487,-0.259 2.819,0.35 3.008,1.379Z" style="fill:#fff;fill-rule:nonzero;"/></g></svg>