<?xml version="1.0" encoding="UTF-8" standalone="no"?><!DOCTYPE svg PUBLIC "-//W3C//DTD SVG 1.1//EN" "http://www.w3.org/Graphics/SVG/1.1/DTD/svg11.dtd"><svg width="100%" height="100%" viewBox="0 0 1107 1042" version="1.1" xmlns="http://www.w3.org/2000/svg" xmlns:xlink="http://www.w3.org/1999/xlink" xml:space="preserve" xmlns:serif="http://www.serif.com/" style="fill-rule:evenodd;clip-rule:evenodd;stroke-linecap:round;stroke-miterlimit:2;"><g><rect x="0" y="466.696" width="1106.19" height="574.971" style="fill:#231f20;fill-rule:nonzero;"/><path d="M317.933,115.531c-18.737,0 -33.933,15.194 -33.933,33.94c0,14.991 9.723,27.712 23.208,32.2c1.698,0.31 2.317,-0.738 2.317,-1.636c0,-0.806 -0.029,-2.939 -0.046,-5.773c-9.439,2.053 -11.431,-4.547 -11.431,-4.547c-1.544,-3.921 -3.769,-4.965 -3.769,-4.965c-3.081,-2.106 0.233,-2.063 0.233,-2.063c3.407,0.24 5.198,3.496 5.198,3.496c3.027,5.188 7.944,3.69 9.878,2.821c0.308,-2.194 1.185,-3.689 2.154,-4.537c-7.536,-0.857 -15.459,-3.769 -15.459,-16.773c0,-3.704 1.323,-6.734 3.494,-9.106c-0.35,-0.859 -1.514,-4.309 0.333,-8.982c0,0 2.848,-0.912 9.332,3.479c2.706,-0.752 5.61,-1.129 8.496,-1.141c2.883,0.012 5.785,0.389 8.495,1.141c6.48,-4.391 9.323,-3.479 9.323,-3.479c1.852,4.673 0.688,8.123 0.34,8.982c2.175,2.372 3.487,5.402 3.487,9.106c0,13.037 -7.935,15.906 -15.493,16.746c1.216,1.047 2.302,3.118 2.302,6.285c-0,4.538 -0.042,8.198 -0.042,9.31c-0,0.907 0.613,1.963 2.333,1.632c13.475,-4.496 23.19,-17.209 23.19,-32.196c-0,-18.746 -15.196,-33.94 -33.94,-33.94Z" style="fill:#181717;"/><path d="M730.435,13.429c-69.473,0 -125.808,56.323 -125.808,125.809c0,55.583 36.048,102.741 86.036,119.377c6.287,1.164 8.595,-2.73 8.595,-6.052c0,-3 -0.116,-12.911 -0.17,-23.423c-35.001,7.61 -42.386,-14.844 -42.386,-14.844c-5.723,-14.54 -13.969,-18.408 -13.969,-18.408c-11.414,-7.809 0.861,-7.648 0.861,-7.648c12.633,0.887 19.285,12.966 19.285,12.966c11.221,19.231 29.431,13.671 36.611,10.456c1.129,-8.129 4.389,-13.681 7.987,-16.822c-27.944,-3.18 -57.319,-13.969 -57.319,-62.175c0,-13.734 4.915,-24.959 12.963,-33.769c-1.306,-3.169 -5.613,-15.965 1.219,-33.294c-0,0 10.564,-3.379 34.606,12.898c10.035,-2.787 20.798,-4.185 31.489,-4.235c10.692,0.05 21.463,1.448 31.517,4.235c24.013,-16.277 34.563,-12.898 34.563,-12.898c6.848,17.329 2.539,30.125 1.233,33.294c8.067,8.81 12.948,20.035 12.948,33.769c-0,48.322 -29.431,58.96 -57.446,62.075c4.513,3.904 8.533,11.56 8.533,23.297c0,16.834 -0.146,30.382 -0.146,34.526c0,3.347 2.265,7.27 8.642,6.035c49.961,-16.654 85.963,-63.794 85.963,-119.36c-0,-69.486 -56.327,-125.809 -125.807,-125.809Z" style="fill:#181717;"/><path d="M652.277,194.06c-0.277,0.628 -1.26,0.815 -2.156,0.386c-0.913,-0.413 -1.425,-1.265 -1.129,-1.892c0.27,-0.641 1.256,-0.821 2.166,-0.391c0.915,0.41 1.436,1.27 1.119,1.897Z" style="fill:#181717;fill-rule:nonzero;"/><path d="M657.373,199.746c-0.6,0.554 -1.773,0.296 -2.569,-0.584c-0.823,-0.877 -0.977,-2.049 -0.369,-2.614c0.619,-0.554 1.757,-0.294 2.582,0.583c0.823,0.888 0.983,2.05 0.356,2.615Z" style="fill:#181717;fill-rule:nonzero;"/><path d="M662.333,206.99c-0.771,0.537 -2.031,0.035 -2.81,-1.084c-0.771,-1.118 -0.771,-2.462 0.017,-3c0.781,-0.537 2.022,-0.052 2.812,1.057c0.769,1.137 0.769,2.479 -0.019,3.027Z" style="fill:#181717;fill-rule:nonzero;"/><path d="M669.129,213.99c-0.689,0.76 -2.158,0.556 -3.233,-0.482c-1.1,-1.014 -1.406,-2.454 -0.715,-3.214c0.698,-0.763 2.175,-0.548 3.259,0.481c1.091,1.012 1.425,2.463 0.689,3.215Z" style="fill:#181717;fill-rule:nonzero;"/><path d="M678.504,218.054c-0.304,0.986 -1.719,1.434 -3.144,1.015c-1.423,-0.431 -2.354,-1.586 -2.066,-2.581c0.296,-0.992 1.716,-1.459 3.152,-1.011c1.421,0.429 2.354,1.575 2.058,2.577Z" style="fill:#181717;fill-rule:nonzero;"/><path d="M688.8,218.808c0.035,1.038 -1.173,1.898 -2.669,1.917c-1.504,0.033 -2.721,-0.806 -2.737,-1.827c-0,-1.048 1.181,-1.9 2.685,-1.925c1.496,-0.029 2.721,0.804 2.721,1.835Z" style="fill:#181717;fill-rule:nonzero;"/><path d="M698.381,217.177c0.179,1.013 -0.86,2.052 -2.346,2.329c-1.46,0.267 -2.812,-0.358 -2.998,-1.362c-0.181,-1.038 0.878,-2.077 2.336,-2.346c1.487,-0.258 2.819,0.35 3.008,1.379Z" style="fill:#181717;fill-rule:nonzero;"/><path d="M468.537,1.067l0,1.041" style="fill:none;stroke:#1981bd;stroke-width:2.08px;"/><path d="M468.537,6.275l0,279.152" style="fill:none;stroke:#1981bd;stroke-width:2.08px;stroke-dasharray:2.08,4.17;"/><path d="M468.537,287.51l0,1.042" style="fill:none;stroke:#1981bd;stroke-width:2.08px;"/><path d="M277.658,317.752c-0.793,-0.577 -1.804,-0.862 -3.037,-0.862c-0.5,-0 -0.992,0.05 -1.475,0.148c-0.486,0.102 -0.913,0.268 -1.288,0.499c-0.375,0.238 -0.675,0.548 -0.902,0.94c-0.225,0.392 -0.337,0.879 -0.337,1.463c-0,0.548 0.162,0.995 0.489,1.337c0.323,0.342 0.759,0.621 1.3,0.836c0.542,0.218 1.152,0.397 1.838,0.539c0.683,0.142 1.379,0.296 2.087,0.46c0.709,0.167 1.402,0.365 2.088,0.59c0.683,0.225 1.296,0.529 1.837,0.913c0.542,0.381 0.975,0.866 1.3,1.448c0.325,0.585 0.488,1.318 0.488,2.202c-0,0.95 -0.213,1.76 -0.638,2.437c-0.427,0.675 -0.97,1.225 -1.637,1.65c-0.667,0.425 -1.413,0.733 -2.238,0.925c-0.825,0.192 -1.646,0.288 -2.462,0.288c-1,-0 -1.946,-0.125 -2.838,-0.375c-0.891,-0.25 -1.675,-0.63 -2.35,-1.138c-0.675,-0.508 -1.208,-1.16 -1.6,-1.952c-0.391,-0.79 -0.587,-1.727 -0.587,-2.81l2.25,-0c-0,0.75 0.144,1.395 0.437,1.937c0.29,0.542 0.675,0.986 1.15,1.336c0.473,0.35 1.025,0.61 1.663,0.777c0.633,0.166 1.281,0.247 1.95,0.247c0.533,0 1.071,-0.047 1.612,-0.15c0.542,-0.097 1.029,-0.268 1.463,-0.512c0.433,-0.24 0.783,-0.569 1.05,-0.985c0.266,-0.419 0.4,-0.952 0.4,-1.6c-0,-0.617 -0.165,-1.117 -0.488,-1.5c-0.325,-0.382 -0.76,-0.696 -1.3,-0.938c-0.543,-0.242 -1.156,-0.437 -1.837,-0.587c-0.684,-0.152 -1.379,-0.307 -2.088,-0.465c-0.708,-0.156 -1.404,-0.34 -2.087,-0.55c-0.684,-0.206 -1.298,-0.481 -1.838,-0.823c-0.541,-0.342 -0.977,-0.783 -1.3,-1.325c-0.325,-0.542 -0.489,-1.221 -0.489,-2.037c-0,-0.9 0.183,-1.68 0.552,-2.34c0.366,-0.656 0.854,-1.198 1.462,-1.625c0.609,-0.423 1.3,-0.74 2.075,-0.948c0.775,-0.21 1.571,-0.312 2.388,-0.312c0.916,-0 1.767,0.11 2.55,0.325c0.783,0.216 1.471,0.558 2.06,1.025c0.594,0.466 1.061,1.054 1.402,1.762c0.34,0.708 0.529,1.554 0.563,2.538l-2.25,-0c-0.136,-1.286 -0.596,-2.213 -1.388,-2.788Z" style="fill:#0071bc;fill-rule:nonzero;"/><path d="M286.571,320.24l-0,1.9l0.05,-0c0.964,-1.469 2.356,-2.2 4.173,-2.2c0.802,-0 1.525,0.166 2.175,0.5c0.652,0.333 1.11,0.898 1.377,1.7c0.433,-0.7 1.004,-1.24 1.712,-1.625c0.709,-0.386 1.488,-0.575 2.336,-0.575c0.65,-0 1.239,0.07 1.764,0.21c0.525,0.144 0.973,0.365 1.35,0.665c0.375,0.3 0.665,0.687 0.873,1.162c0.211,0.475 0.313,1.046 0.313,1.713l-0,9.472l-2.123,0l-0,-8.472c-0,-0.403 -0.036,-0.775 -0.102,-1.125c-0.065,-0.35 -0.19,-0.657 -0.373,-0.913c-0.186,-0.26 -0.44,-0.462 -0.763,-0.614c-0.325,-0.15 -0.745,-0.223 -1.262,-0.223c-1.05,-0 -1.875,0.298 -2.475,0.9c-0.6,0.6 -0.9,1.4 -0.9,2.4l-0,8.047l-2.127,0l-0,-8.472c-0,-0.417 -0.038,-0.8 -0.111,-1.15c-0.075,-0.35 -0.204,-0.655 -0.387,-0.913c-0.186,-0.258 -0.429,-0.458 -0.738,-0.6c-0.31,-0.144 -0.706,-0.212 -1.187,-0.212c-0.617,-0 -1.146,0.122 -1.588,0.375c-0.443,0.25 -0.802,0.548 -1.075,0.898c-0.275,0.349 -0.475,0.712 -0.6,1.089c-0.127,0.375 -0.187,0.688 -0.187,0.938l-0,8.047l-2.125,0l-0,-12.922l2,-0Z" style="fill:#0071bc;fill-rule:nonzero;"/><path d="M312.844,326.925c-0.434,0.094 -0.886,0.167 -1.361,0.225c-0.475,0.06 -0.956,0.125 -1.439,0.202c-0.484,0.073 -0.917,0.196 -1.298,0.363c-0.386,0.166 -0.698,0.402 -0.94,0.712c-0.241,0.308 -0.36,0.727 -0.36,1.26c-0,0.35 0.069,0.648 0.21,0.888c0.142,0.244 0.325,0.44 0.55,0.59c0.225,0.147 0.492,0.256 0.802,0.323c0.309,0.068 0.619,0.099 0.936,0.099c0.7,0 1.3,-0.093 1.802,-0.285c0.498,-0.192 0.906,-0.433 1.223,-0.727c0.316,-0.29 0.552,-0.606 0.7,-0.948c0.15,-0.342 0.225,-0.662 0.225,-0.965l-0,-2.172c-0.267,0.2 -0.617,0.345 -1.05,0.435Zm2.977,6.515c-0.552,-0 -0.988,-0.155 -1.315,-0.465c-0.323,-0.306 -0.487,-0.81 -0.487,-1.51c-0.584,0.7 -1.263,1.204 -2.038,1.51c-0.775,0.31 -1.612,0.465 -2.512,0.465c-0.581,-0 -1.134,-0.063 -1.65,-0.188c-0.517,-0.125 -0.971,-0.333 -1.361,-0.627c-0.391,-0.29 -0.7,-0.665 -0.925,-1.123c-0.227,-0.458 -0.337,-1.012 -0.337,-1.662c-0,-0.734 0.125,-1.334 0.373,-1.8c0.25,-0.467 0.579,-0.846 0.987,-1.14c0.409,-0.29 0.875,-0.513 1.4,-0.663c0.525,-0.147 1.063,-0.272 1.615,-0.374c0.581,-0.115 1.137,-0.203 1.662,-0.261c0.523,-0.058 0.988,-0.142 1.388,-0.252c0.398,-0.106 0.714,-0.265 0.95,-0.473c0.231,-0.21 0.35,-0.512 0.35,-0.914c-0,-0.463 -0.088,-0.84 -0.263,-1.123c-0.175,-0.286 -0.402,-0.5 -0.677,-0.65c-0.273,-0.152 -0.583,-0.253 -0.925,-0.302c-0.341,-0.048 -0.679,-0.073 -1.01,-0.073c-0.9,-0 -1.65,0.17 -2.25,0.512c-0.602,0.342 -0.927,0.988 -0.977,1.938l-2.125,-0c0.033,-0.8 0.2,-1.475 0.502,-2.027c0.3,-0.55 0.698,-0.996 1.198,-1.338c0.5,-0.34 1.075,-0.587 1.725,-0.737c0.65,-0.148 1.333,-0.223 2.05,-0.223c0.585,-0 1.162,0.039 1.737,0.125c0.577,0.081 1.098,0.252 1.563,0.512c0.466,0.256 0.844,0.621 1.125,1.088c0.283,0.466 0.425,1.073 0.425,1.825l-0,6.65c-0,0.5 0.031,0.866 0.087,1.097c0.059,0.236 0.257,0.35 0.59,0.35c0.183,0 0.398,-0.039 0.65,-0.122l-0,1.65c-0.369,0.214 -0.875,0.325 -1.525,0.325Z" style="fill:#0071bc;fill-rule:nonzero;"/><rect x="319.444" y="315.315" width="2.127" height="17.848" style="fill:#0071bc;fill-rule:nonzero;"/><rect x="324.994" y="315.315" width="2.125" height="17.848" style="fill:#0071bc;fill-rule:nonzero;"/><path d="M212.196,352.113l-0,-1.875l2.175,-0l-0,-1.923c-0,-1.05 0.304,-1.846 0.912,-2.388c0.609,-0.542 1.496,-0.812 2.663,-0.812c0.2,-0 0.429,0.014 0.687,0.048c0.259,0.035 0.488,0.085 0.688,0.149l-0,1.853c-0.184,-0.067 -0.384,-0.115 -0.6,-0.138c-0.217,-0.025 -0.417,-0.037 -0.6,-0.037c-0.517,-0 -0.917,0.1 -1.2,0.297c-0.283,0.203 -0.425,0.586 -0.425,1.15l-0,1.801l2.5,-0l-0,1.875l-2.5,-0l-0,11.052l-2.125,-0l-0,-11.052l-2.175,-0Z" style="fill:#0071bc;fill-rule:nonzero;"/><path d="M222.758,358.802c0.207,0.608 0.496,1.115 0.863,1.525c0.366,0.408 0.796,0.721 1.285,0.938c0.492,0.214 1.015,0.325 1.563,0.325c0.552,-0 1.073,-0.111 1.562,-0.325c0.492,-0.217 0.921,-0.53 1.29,-0.938c0.364,-0.41 0.654,-0.917 0.862,-1.525c0.209,-0.608 0.313,-1.304 0.313,-2.087c-0,-0.786 -0.104,-1.48 -0.313,-2.088c-0.208,-0.61 -0.498,-1.121 -0.862,-1.537c-0.369,-0.417 -0.798,-0.734 -1.29,-0.95c-0.489,-0.219 -1.01,-0.328 -1.562,-0.328c-0.548,0 -1.071,0.109 -1.563,0.328c-0.489,0.216 -0.919,0.533 -1.285,0.95c-0.367,0.416 -0.656,0.927 -0.863,1.537c-0.208,0.608 -0.312,1.302 -0.312,2.088c-0,0.783 0.104,1.479 0.312,2.087Zm-2.162,-4.75c0.266,-0.825 0.664,-1.542 1.2,-2.152c0.533,-0.606 1.191,-1.085 1.975,-1.435c0.783,-0.35 1.683,-0.525 2.698,-0.525c1.035,-0 1.939,0.175 2.714,0.525c0.775,0.35 1.427,0.829 1.963,1.435c0.531,0.61 0.931,1.327 1.2,2.152c0.266,0.823 0.4,1.713 0.4,2.663c-0,0.948 -0.134,1.833 -0.4,2.647c-0.269,0.819 -0.669,1.532 -1.2,2.14c-0.536,0.608 -1.188,1.083 -1.963,1.425c-0.775,0.34 -1.679,0.511 -2.714,0.511c-1.015,-0 -1.915,-0.171 -2.698,-0.511c-0.784,-0.342 -1.442,-0.817 -1.975,-1.425c-0.536,-0.608 -0.934,-1.321 -1.2,-2.14c-0.267,-0.814 -0.4,-1.699 -0.4,-2.647c-0,-0.95 0.133,-1.84 0.4,-2.663Z" style="fill:#0071bc;fill-rule:nonzero;"/><path d="M237.171,350.238l-0,2.724l0.05,0c0.516,-1.05 1.15,-1.822 1.9,-2.322c0.75,-0.5 1.7,-0.734 2.85,-0.7l-0,2.25c-0.85,-0 -1.575,0.116 -2.175,0.35c-0.6,0.231 -1.086,0.572 -1.45,1.025c-0.367,0.447 -0.636,0.995 -0.8,1.635c-0.167,0.644 -0.25,1.379 -0.25,2.215l-0,5.75l-2.125,-0l-0,-12.927l2,-0Z" style="fill:#0071bc;fill-rule:nonzero;"/><path d="M255.694,363.165l-0,-12.7l-4.6,-0l-0,-1.7c0.6,-0 1.183,-0.046 1.75,-0.14c0.566,-0.09 1.079,-0.26 1.537,-0.513c0.459,-0.247 0.846,-0.589 1.165,-1.022c0.314,-0.434 0.531,-0.984 0.65,-1.65l1.623,-0l-0,17.725l-2.125,-0Z" style="fill:#0071bc;fill-rule:nonzero;"/><path d="M268.392,353.952c-0.446,0.206 -0.832,0.492 -1.146,0.85c-0.317,0.358 -0.556,0.783 -0.713,1.273c-0.158,0.494 -0.237,1.015 -0.237,1.562c-0,0.55 0.083,1.067 0.25,1.551c0.164,0.485 0.404,0.9 0.712,1.25c0.309,0.35 0.692,0.631 1.15,0.837c0.459,0.21 0.979,0.315 1.563,0.315c0.583,-0 1.096,-0.105 1.537,-0.315c0.44,-0.206 0.813,-0.496 1.113,-0.863c0.3,-0.364 0.529,-0.787 0.687,-1.26c0.159,-0.477 0.238,-0.973 0.238,-1.489c-0,-0.55 -0.071,-1.071 -0.213,-1.563c-0.141,-0.49 -0.362,-0.915 -0.662,-1.273c-0.3,-0.358 -0.675,-0.648 -1.127,-0.862c-0.448,-0.217 -0.975,-0.327 -1.573,-0.327c-0.6,-0 -1.125,0.106 -1.579,0.314Zm3.852,-5.912c-0.517,-0.486 -1.198,-0.725 -2.048,-0.725c-0.902,-0 -1.629,0.22 -2.177,0.662c-0.548,0.442 -0.979,0.998 -1.286,1.673c-0.308,0.677 -0.521,1.404 -0.639,2.19c-0.115,0.781 -0.181,1.516 -0.198,2.2l0.05,0.05c0.5,-0.817 1.121,-1.409 1.862,-1.775c0.742,-0.367 1.594,-0.552 2.563,-0.552c0.85,-0 1.612,0.145 2.287,0.439c0.675,0.29 1.242,0.696 1.7,1.213c0.459,0.516 0.813,1.123 1.063,1.823c0.25,0.702 0.375,1.46 0.375,2.277c-0,0.647 -0.1,1.323 -0.3,2.023c-0.2,0.7 -0.529,1.339 -0.988,1.912c-0.46,0.577 -1.066,1.05 -1.825,1.425c-0.758,0.377 -1.695,0.563 -2.814,0.563c-1.315,-0 -2.375,-0.265 -3.173,-0.798c-0.8,-0.534 -1.417,-1.217 -1.85,-2.052c-0.436,-0.832 -0.721,-1.75 -0.863,-2.751c-0.143,-0.999 -0.212,-1.964 -0.212,-2.9c-0,-1.214 0.104,-2.393 0.312,-3.537c0.209,-1.14 0.563,-2.152 1.063,-3.035c0.5,-0.884 1.164,-1.592 1.998,-2.125c0.835,-0.534 1.885,-0.8 3.152,-0.8c1.466,-0 2.633,0.385 3.5,1.16c0.866,0.777 1.367,1.898 1.5,3.365l-2.127,-0c-0.098,-0.803 -0.409,-1.442 -0.925,-1.925Z" style="fill:#0071bc;fill-rule:nonzero;"/><path d="M288.158,354.827c-0.158,-0.575 -0.402,-1.087 -0.725,-1.539c-0.327,-0.451 -0.741,-0.807 -1.25,-1.073c-0.51,-0.267 -1.106,-0.403 -1.787,-0.403c-0.719,0 -1.327,0.144 -1.825,0.428c-0.502,0.283 -0.909,0.654 -1.225,1.112c-0.319,0.456 -0.546,0.977 -0.688,1.563c-0.143,0.583 -0.212,1.172 -0.212,1.775c-0,0.633 0.075,1.245 0.225,1.835c0.148,0.594 0.387,1.115 0.71,1.563c0.327,0.452 0.746,0.814 1.265,1.087c0.514,0.275 1.142,0.415 1.875,0.415c0.731,-0 1.346,-0.144 1.837,-0.425c0.492,-0.284 0.886,-0.659 1.186,-1.125c0.3,-0.467 0.519,-1.002 0.65,-1.6c0.133,-0.603 0.202,-1.217 0.202,-1.853c-0,-0.597 -0.079,-1.187 -0.238,-1.76Zm-7.637,-4.589l-0,1.752l0.05,-0c0.35,-0.717 0.898,-1.238 1.65,-1.563c0.75,-0.325 1.575,-0.487 2.475,-0.487c1,-0 1.871,0.183 2.612,0.55c0.742,0.364 1.357,0.862 1.85,1.485c0.492,0.625 0.861,1.348 1.111,2.165c0.252,0.816 0.377,1.683 0.377,2.6c-0,0.914 -0.121,1.781 -0.365,2.6c-0.239,0.816 -0.608,1.529 -1.098,2.135c-0.491,0.61 -1.11,1.087 -1.85,1.437c-0.743,0.35 -1.606,0.526 -2.587,0.526c-0.319,-0 -0.673,-0.034 -1.065,-0.098c-0.391,-0.069 -0.779,-0.175 -1.16,-0.327c-0.384,-0.15 -0.748,-0.355 -1.088,-0.613c-0.341,-0.258 -0.629,-0.579 -0.862,-0.96l-0.05,-0l-0,6.648l-2.125,-0l-0,-17.85l2.125,-0Z" style="fill:#0071bc;fill-rule:nonzero;"/><path d="M292.119,350.238l2.725,-0l3.1,4.525l3.225,-4.525l2.552,-0l-4.452,5.952l5,6.975l-2.725,-0l-3.6,-5.353l-3.598,5.353l-2.577,-0l4.85,-6.8l-4.5,-6.127Z" style="fill:#0071bc;fill-rule:nonzero;"/><rect x="305.744" y="355.213" width="7.225" height="2.002" style="fill:#0071bc;fill-rule:nonzero;"/><path d="M320.994,363.165l-0,-12.7l-4.6,-0l-0,-1.7c0.6,-0 1.183,-0.046 1.75,-0.14c0.566,-0.09 1.079,-0.26 1.537,-0.513c0.459,-0.247 0.846,-0.589 1.163,-1.022c0.316,-0.434 0.533,-0.984 0.65,-1.65l1.625,-0l-0,17.725l-2.125,-0Z" style="fill:#0071bc;fill-rule:nonzero;"/><path d="M329.494,349.215c0.233,-0.769 0.596,-1.43 1.087,-1.99c0.492,-0.556 1.104,-0.994 1.838,-1.31c0.733,-0.317 1.566,-0.475 2.5,-0.475c0.766,-0 1.487,0.11 2.162,0.337c0.675,0.223 1.263,0.55 1.763,0.975c0.5,0.425 0.896,0.954 1.187,1.585c0.292,0.634 0.438,1.369 0.438,2.2c-0,0.786 -0.121,1.478 -0.363,2.075c-0.241,0.603 -0.562,1.14 -0.962,1.615c-0.4,0.473 -0.859,0.904 -1.375,1.288c-0.517,0.381 -1.05,0.748 -1.6,1.098c-0.55,0.333 -1.1,0.662 -1.65,0.989c-0.55,0.325 -1.054,0.671 -1.513,1.038c-0.458,0.366 -0.85,0.76 -1.175,1.187c-0.325,0.423 -0.537,0.913 -0.637,1.46l9.1,0l-0,1.878l-11.575,-0c0.083,-1.05 0.271,-1.946 0.562,-2.688c0.292,-0.744 0.663,-1.39 1.113,-1.94c0.45,-0.549 0.958,-1.031 1.525,-1.447c0.566,-0.417 1.158,-0.809 1.775,-1.177c0.75,-0.467 1.408,-0.896 1.975,-1.286c0.566,-0.392 1.037,-0.789 1.412,-1.187c0.375,-0.4 0.659,-0.836 0.85,-1.3c0.192,-0.467 0.288,-1.009 0.288,-1.627c-0,-0.482 -0.092,-0.919 -0.275,-1.313c-0.184,-0.39 -0.429,-0.727 -0.738,-1.01c-0.308,-0.286 -0.671,-0.5 -1.087,-0.65c-0.417,-0.152 -0.859,-0.225 -1.325,-0.225c-0.617,-0 -1.146,0.129 -1.588,0.387c-0.441,0.258 -0.804,0.596 -1.087,1.013c-0.284,0.414 -0.488,0.887 -0.613,1.412c-0.125,0.525 -0.179,1.054 -0.162,1.588l-2.125,-0c-0.05,-0.9 0.041,-1.734 0.275,-2.5Z" style="fill:#0071bc;fill-rule:nonzero;"/><path d="M345.381,356.677c0.042,0.825 0.177,1.6 0.4,2.325c0.225,0.723 0.588,1.338 1.088,1.835c0.5,0.503 1.2,0.753 2.1,0.753c0.902,-0 1.6,-0.25 2.102,-0.753c0.498,-0.497 0.86,-1.112 1.087,-1.835c0.223,-0.725 0.357,-1.5 0.398,-2.325c0.042,-0.825 0.063,-1.573 0.063,-2.237c-0,-0.436 -0.004,-0.913 -0.013,-1.438c-0.008,-0.525 -0.05,-1.05 -0.125,-1.575c-0.075,-0.527 -0.181,-1.037 -0.323,-1.539c-0.143,-0.498 -0.35,-0.938 -0.627,-1.311c-0.273,-0.375 -0.618,-0.679 -1.037,-0.912c-0.417,-0.234 -0.925,-0.35 -1.525,-0.35c-0.6,-0 -1.109,0.116 -1.525,0.35c-0.417,0.233 -0.763,0.537 -1.038,0.912c-0.275,0.373 -0.483,0.813 -0.625,1.311c-0.141,0.502 -0.25,1.012 -0.325,1.539c-0.075,0.525 -0.116,1.05 -0.125,1.575c-0.008,0.525 -0.012,1.002 -0.012,1.438c-0,0.664 0.021,1.412 0.062,2.237Zm-2.262,-4.239c0.033,-0.7 0.116,-1.384 0.25,-2.048c0.133,-0.667 0.327,-1.3 0.575,-1.9c0.25,-0.6 0.591,-1.125 1.025,-1.575c0.433,-0.45 0.979,-0.809 1.637,-1.077c0.661,-0.265 1.446,-0.398 2.363,-0.398c0.916,-0 1.704,0.133 2.364,0.398c0.657,0.268 1.202,0.627 1.636,1.077c0.433,0.45 0.775,0.975 1.025,1.575c0.25,0.6 0.441,1.233 0.575,1.9c0.133,0.664 0.216,1.348 0.25,2.048c0.033,0.7 0.05,1.374 0.05,2.027c-0,0.65 -0.017,1.325 -0.05,2.023c-0.034,0.7 -0.117,1.385 -0.25,2.049c-0.134,0.667 -0.325,1.298 -0.575,1.888c-0.25,0.594 -0.592,1.115 -1.025,1.562c-0.434,0.453 -0.975,0.807 -1.625,1.063c-0.65,0.26 -1.44,0.388 -2.375,0.388c-0.917,-0 -1.702,-0.128 -2.363,-0.388c-0.658,-0.256 -1.204,-0.61 -1.637,-1.063c-0.434,-0.447 -0.775,-0.968 -1.025,-1.562c-0.248,-0.59 -0.442,-1.221 -0.575,-1.888c-0.134,-0.664 -0.217,-1.349 -0.25,-2.049c-0.034,-0.698 -0.05,-1.373 -0.05,-2.023c-0,-0.653 0.016,-1.327 0.05,-2.027Z" style="fill:#0071bc;fill-rule:nonzero;"/><path d="M367.356,354.827c-0.158,-0.575 -0.4,-1.087 -0.725,-1.539c-0.325,-0.451 -0.741,-0.807 -1.25,-1.073c-0.508,-0.267 -1.104,-0.403 -1.787,-0.403c-0.717,0 -1.325,0.144 -1.825,0.428c-0.5,0.283 -0.909,0.654 -1.225,1.112c-0.317,0.456 -0.546,0.977 -0.688,1.563c-0.141,0.583 -0.212,1.172 -0.212,1.775c-0,0.633 0.075,1.245 0.225,1.835c0.15,0.594 0.387,1.115 0.712,1.563c0.325,0.452 0.746,0.814 1.265,1.087c0.514,0.275 1.139,0.415 1.873,0.415c0.733,-0 1.346,-0.144 1.837,-0.425c0.492,-0.284 0.888,-0.659 1.188,-1.125c0.3,-0.467 0.516,-1.002 0.65,-1.6c0.133,-0.603 0.2,-1.217 0.2,-1.853c-0,-0.597 -0.079,-1.187 -0.238,-1.76Zm-7.637,-4.589l-0,1.752l0.05,-0c0.35,-0.717 0.9,-1.238 1.65,-1.563c0.75,-0.325 1.575,-0.487 2.475,-0.487c1,-0 1.871,0.183 2.612,0.55c0.742,0.364 1.359,0.862 1.85,1.485c0.492,0.625 0.863,1.348 1.113,2.165c0.25,0.816 0.375,1.683 0.375,2.6c-0,0.914 -0.121,1.781 -0.363,2.6c-0.241,0.816 -0.608,1.529 -1.1,2.135c-0.491,0.61 -1.108,1.087 -1.848,1.437c-0.743,0.35 -1.606,0.526 -2.589,0.526c-0.317,-0 -0.671,-0.034 -1.063,-0.098c-0.391,-0.069 -0.779,-0.175 -1.162,-0.327c-0.384,-0.15 -0.746,-0.355 -1.086,-0.613c-0.343,-0.258 -0.631,-0.579 -0.864,-0.96l-0.05,-0l-0,6.648l-2.125,-0l-0,-17.85l2.125,-0Z" style="fill:#0071bc;fill-rule:nonzero;"/><path d="M371.319,350.238l2.725,-0l3.1,4.525l3.225,-4.525l2.55,-0l-4.45,5.952l5,6.975l-2.725,-0l-3.6,-5.353l-3.6,5.353l-2.575,-0l4.85,-6.8l-4.5,-6.127Z" style="fill:#0071bc;fill-rule:nonzero;"/><path d="M699.235,315.313l0,15.847l9.45,0l0,2.002l-11.823,0l0,-17.849l2.373,-0Z" style="fill:#0071bc;fill-rule:nonzero;"/><path d="M717.36,326.925c-0.435,0.092 -0.885,0.167 -1.362,0.225c-0.475,0.058 -0.956,0.125 -1.438,0.198c-0.483,0.077 -0.918,0.198 -1.3,0.362c-0.383,0.167 -0.695,0.407 -0.937,0.715c-0.244,0.306 -0.36,0.729 -0.36,1.262c-0,0.35 0.068,0.646 0.21,0.888c0.142,0.24 0.325,0.435 0.55,0.585c0.223,0.152 0.492,0.261 0.802,0.328c0.306,0.066 0.617,0.099 0.935,0.099c0.7,0 1.3,-0.095 1.8,-0.287c0.498,-0.192 0.909,-0.433 1.225,-0.725c0.315,-0.294 0.552,-0.61 0.7,-0.952c0.148,-0.34 0.225,-0.66 0.225,-0.961l0,-2.177c-0.268,0.202 -0.618,0.346 -1.05,0.44Zm2.975,6.51c-0.55,0 -0.987,-0.152 -1.314,-0.46c-0.323,-0.308 -0.486,-0.813 -0.486,-1.513c-0.583,0.7 -1.264,1.205 -2.037,1.513c-0.777,0.308 -1.613,0.46 -2.515,0.46c-0.581,0 -1.131,-0.06 -1.648,-0.187c-0.516,-0.123 -0.972,-0.333 -1.362,-0.623c-0.392,-0.292 -0.7,-0.667 -0.923,-1.127c-0.229,-0.456 -0.338,-1.013 -0.338,-1.663c0,-0.731 0.123,-1.331 0.373,-1.8c0.248,-0.464 0.58,-0.843 0.988,-1.135c0.408,-0.292 0.875,-0.513 1.4,-0.663c0.525,-0.149 1.062,-0.277 1.612,-0.374c0.582,-0.117 1.138,-0.205 1.663,-0.265c0.525,-0.056 0.987,-0.14 1.387,-0.248c0.4,-0.108 0.717,-0.269 0.95,-0.475c0.232,-0.208 0.35,-0.512 0.35,-0.912c0,-0.467 -0.087,-0.842 -0.262,-1.128c-0.175,-0.281 -0.4,-0.498 -0.675,-0.648c-0.275,-0.149 -0.583,-0.25 -0.927,-0.299c-0.342,-0.051 -0.679,-0.078 -1.011,-0.078c-0.9,0 -1.65,0.173 -2.25,0.513c-0.6,0.342 -0.925,0.99 -0.975,1.939l-2.125,0c0.034,-0.8 0.2,-1.475 0.5,-2.024c0.3,-0.55 0.7,-0.996 1.198,-1.338c0.5,-0.344 1.077,-0.587 1.725,-0.737c0.652,-0.151 1.336,-0.225 2.052,-0.225c0.584,-0 1.163,0.041 1.738,0.122c0.575,0.086 1.096,0.257 1.562,0.513c0.467,0.26 0.842,0.623 1.125,1.09c0.282,0.464 0.425,1.075 0.425,1.824l0,6.648c0,0.5 0.03,0.867 0.088,1.102c0.058,0.234 0.254,0.35 0.587,0.35c0.184,0 0.398,-0.041 0.652,-0.125l0,1.651c-0.368,0.216 -0.874,0.322 -1.527,0.322Z" style="fill:#0071bc;fill-rule:nonzero;"/><path d="M725.76,320.235l0,2.728l0.048,-0c0.517,-1.05 1.152,-1.826 1.9,-2.328c0.752,-0.498 1.702,-0.731 2.852,-0.697l0,2.249c-0.85,0 -1.575,0.115 -2.177,0.35c-0.598,0.234 -1.081,0.575 -1.448,1.025c-0.366,0.451 -0.635,0.994 -0.802,1.638c-0.166,0.642 -0.248,1.379 -0.248,2.212l0,5.75l-2.125,0l0,-12.927l2,0Z" style="fill:#0071bc;fill-rule:nonzero;"/><path d="M738.446,330.998c0.494,-0.288 0.887,-0.673 1.189,-1.148c0.3,-0.475 0.521,-1.012 0.663,-1.613c0.142,-0.6 0.212,-1.2 0.212,-1.799c0,-0.567 -0.066,-1.126 -0.2,-1.678c-0.133,-0.55 -0.345,-1.045 -0.639,-1.485c-0.29,-0.444 -0.671,-0.798 -1.136,-1.063c-0.466,-0.268 -1.033,-0.402 -1.7,-0.402c-0.683,0 -1.266,0.132 -1.75,0.388c-0.483,0.26 -0.879,0.606 -1.187,1.039c-0.31,0.434 -0.533,0.934 -0.675,1.498c-0.144,0.569 -0.213,1.161 -0.213,1.778c0,0.583 0.057,1.164 0.175,1.75c0.117,0.583 0.317,1.112 0.598,1.587c0.286,0.475 0.661,0.86 1.127,1.148c0.467,0.294 1.05,0.439 1.75,0.439c0.7,0 1.294,-0.145 1.786,-0.439Zm2.714,5.815c-0.968,1.05 -2.483,1.574 -4.547,1.574c-0.603,0 -1.213,-0.066 -1.84,-0.2c-0.625,-0.133 -1.192,-0.35 -1.702,-0.649c-0.508,-0.303 -0.927,-0.692 -1.261,-1.178c-0.333,-0.483 -0.516,-1.073 -0.55,-1.773l2.125,0c0.017,0.382 0.138,0.709 0.363,0.976c0.225,0.266 0.5,0.481 0.825,0.647c0.325,0.167 0.679,0.29 1.062,0.365c0.382,0.075 0.748,0.112 1.098,0.112c0.702,0 1.294,-0.122 1.777,-0.362c0.482,-0.242 0.886,-0.575 1.2,-1.002c0.315,-0.423 0.546,-0.935 0.688,-1.538c0.14,-0.598 0.214,-1.256 0.214,-1.973l0,-0.85l-0.052,0c-0.368,0.801 -0.92,1.388 -1.662,1.761c-0.742,0.377 -1.529,0.564 -2.363,0.564c-0.966,0 -1.808,-0.174 -2.523,-0.524c-0.718,-0.35 -1.318,-0.821 -1.804,-1.415c-0.481,-0.59 -0.846,-1.281 -1.085,-2.075c-0.242,-0.79 -0.363,-1.627 -0.363,-2.51c0,-0.767 0.1,-1.555 0.303,-2.365c0.197,-0.804 0.531,-1.54 0.997,-2.2c0.467,-0.656 1.086,-1.198 1.85,-1.625c0.767,-0.423 1.709,-0.635 2.823,-0.635c0.819,-0 1.567,0.181 2.25,0.537c0.684,0.358 1.217,0.896 1.602,1.612l0.027,0l0,-1.852l1.998,0l0,11.828c0,2.114 -0.485,3.699 -1.45,4.75Z" style="fill:#0071bc;fill-rule:nonzero;"/><path d="M754.446,324.035c-0.192,-0.45 -0.448,-0.837 -0.773,-1.16c-0.325,-0.327 -0.711,-0.583 -1.152,-0.775c-0.442,-0.192 -0.927,-0.29 -1.461,-0.29c-0.55,0 -1.047,0.098 -1.489,0.29c-0.442,0.192 -0.821,0.454 -1.138,0.787c-0.314,0.334 -0.566,0.721 -0.75,1.161c-0.183,0.444 -0.291,0.914 -0.323,1.414l7.423,0c-0.031,-0.5 -0.145,-0.975 -0.337,-1.427Zm0.512,8.303c-0.964,0.731 -2.183,1.097 -3.65,1.097c-1.033,0 -1.927,-0.166 -2.685,-0.498c-0.761,-0.333 -1.398,-0.8 -1.913,-1.399c-0.516,-0.6 -0.904,-1.317 -1.162,-2.151c-0.258,-0.835 -0.406,-1.741 -0.438,-2.727c0,-0.981 0.148,-1.881 0.45,-2.697c0.3,-0.817 0.719,-1.526 1.261,-2.126c0.542,-0.599 1.183,-1.066 1.927,-1.4c0.739,-0.333 1.552,-0.499 2.437,-0.499c1.15,-0 2.105,0.237 2.863,0.712c0.756,0.475 1.367,1.079 1.825,1.813c0.456,0.733 0.775,1.533 0.95,2.399c0.175,0.867 0.244,1.692 0.21,2.473l-9.673,0c-0.018,0.569 0.05,1.107 0.2,1.615c0.15,0.508 0.392,0.958 0.725,1.348c0.332,0.394 0.757,0.704 1.273,0.939c0.519,0.234 1.127,0.35 1.825,0.35c0.902,0 1.64,-0.208 2.213,-0.625c0.577,-0.416 0.956,-1.049 1.139,-1.899l2.1,-0c-0.285,1.449 -0.908,2.541 -1.877,3.275Z" style="fill:#0071bc;fill-rule:nonzero;"/><path d="M761.16,320.235l0,2.728l0.048,-0c0.517,-1.05 1.152,-1.826 1.9,-2.328c0.75,-0.498 1.702,-0.731 2.852,-0.697l0,2.249c-0.852,0 -1.575,0.115 -2.175,0.35c-0.6,0.234 -1.085,0.575 -1.452,1.025c-0.364,0.451 -0.631,0.994 -0.798,1.638c-0.168,0.642 -0.25,1.379 -0.25,2.212l0,5.75l-2.127,0l0,-12.927l2.002,0Z" style="fill:#0071bc;fill-rule:nonzero;"/><path d="M663.035,352.113l0,-1.875l2.175,-0l0,-1.925c0,-1.05 0.305,-1.848 0.915,-2.39c0.606,-0.542 1.492,-0.811 2.66,-0.811c0.2,0 0.43,0.017 0.688,0.051c0.258,0.033 0.487,0.081 0.687,0.149l0,1.848c-0.183,-0.064 -0.381,-0.11 -0.6,-0.137c-0.216,-0.023 -0.416,-0.038 -0.6,-0.038c-0.516,0 -0.914,0.102 -1.2,0.302c-0.283,0.198 -0.423,0.584 -0.423,1.15l0,1.801l2.498,-0l0,1.875l-2.498,-0l0,11.049l-2.127,0l0,-11.049l-2.175,-0Z" style="fill:#0071bc;fill-rule:nonzero;"/><path d="M673.6,358.798c0.206,0.61 0.494,1.119 0.863,1.525c0.364,0.41 0.791,0.721 1.285,0.937c0.492,0.219 1.012,0.328 1.562,0.328c0.548,-0 1.069,-0.109 1.563,-0.328c0.492,-0.216 0.919,-0.527 1.287,-0.937c0.367,-0.406 0.653,-0.915 0.863,-1.525c0.21,-0.606 0.31,-1.302 0.31,-2.088c0,-0.781 -0.1,-1.477 -0.31,-2.087c-0.21,-0.606 -0.496,-1.119 -0.863,-1.536c-0.368,-0.416 -0.795,-0.735 -1.287,-0.949c-0.494,-0.217 -1.015,-0.328 -1.563,-0.328c-0.55,0 -1.07,0.111 -1.562,0.328c-0.494,0.214 -0.921,0.533 -1.285,0.949c-0.369,0.417 -0.657,0.93 -0.863,1.536c-0.21,0.61 -0.315,1.306 -0.315,2.087c0,0.786 0.105,1.482 0.315,2.088Zm-2.167,-4.748c0.269,-0.827 0.669,-1.544 1.202,-2.15c0.534,-0.61 1.192,-1.09 1.975,-1.44c0.784,-0.35 1.684,-0.525 2.7,-0.525c1.034,0 1.936,0.175 2.715,0.525c0.773,0.35 1.427,0.83 1.96,1.44c0.534,0.606 0.932,1.323 1.2,2.15c0.267,0.825 0.4,1.712 0.4,2.66c0,0.953 -0.133,1.836 -0.4,2.65c-0.268,0.817 -0.666,1.532 -1.2,2.14c-0.533,0.608 -1.187,1.081 -1.96,1.423c-0.779,0.342 -1.681,0.515 -2.715,0.515c-1.016,-0 -1.916,-0.173 -2.7,-0.515c-0.783,-0.342 -1.441,-0.815 -1.975,-1.423c-0.533,-0.608 -0.933,-1.323 -1.202,-2.14c-0.262,-0.814 -0.398,-1.697 -0.398,-2.65c0,-0.948 0.136,-1.835 0.398,-2.66Z" style="fill:#0071bc;fill-rule:nonzero;"/><path d="M688.013,350.238l-0,2.724l0.047,0c0.517,-1.05 1.152,-1.827 1.9,-2.327c0.748,-0.497 1.7,-0.733 2.85,-0.7l0,2.25c-0.85,0 -1.575,0.119 -2.175,0.35c-0.6,0.236 -1.083,0.575 -1.45,1.025c-0.366,0.452 -0.633,0.998 -0.8,1.64c-0.166,0.64 -0.25,1.377 -0.25,2.213l0,5.749l-2.125,0l0,-12.924l2.003,-0Z" style="fill:#0071bc;fill-rule:nonzero;"/><path d="M706.533,363.162l0,-12.702l-4.598,0l0,-1.7c0.598,0 1.182,-0.045 1.75,-0.135c0.565,-0.094 1.08,-0.265 1.538,-0.513c0.456,-0.252 0.844,-0.591 1.162,-1.025c0.315,-0.433 0.534,-0.985 0.648,-1.65l1.627,0l0,17.725l-2.127,0Z" style="fill:#0071bc;fill-rule:nonzero;"/><path d="M715.035,349.21c0.234,-0.764 0.596,-1.427 1.09,-1.985c0.49,-0.558 1.102,-0.996 1.835,-1.315c0.734,-0.314 1.565,-0.473 2.502,-0.473c0.765,0 1.486,0.113 2.161,0.336c0.675,0.227 1.262,0.552 1.76,0.977c0.502,0.425 0.898,0.954 1.19,1.585c0.292,0.636 0.439,1.369 0.439,2.202c0,0.782 -0.122,1.473 -0.364,2.075c-0.242,0.598 -0.565,1.136 -0.963,1.613c-0.398,0.475 -0.858,0.902 -1.375,1.287c-0.516,0.384 -1.05,0.751 -1.6,1.101c-0.548,0.333 -1.1,0.66 -1.652,0.987c-0.548,0.323 -1.054,0.671 -1.508,1.037c-0.46,0.365 -0.85,0.763 -1.177,1.186c-0.325,0.427 -0.538,0.914 -0.638,1.464l9.103,0l-0,1.875l-11.578,0c0.084,-1.05 0.271,-1.947 0.563,-2.687c0.292,-0.742 0.662,-1.388 1.112,-1.938c0.45,-0.549 0.959,-1.033 1.525,-1.449c0.567,-0.419 1.159,-0.809 1.775,-1.175c0.75,-0.467 1.411,-0.898 1.975,-1.29c0.567,-0.39 1.038,-0.785 1.413,-1.186c0.373,-0.402 0.658,-0.833 0.85,-1.299c0.192,-0.469 0.29,-1.011 0.29,-1.625c-0,-0.484 -0.094,-0.923 -0.278,-1.313c-0.183,-0.392 -0.429,-0.729 -0.737,-1.015c-0.308,-0.281 -0.671,-0.5 -1.088,-0.648c-0.416,-0.149 -0.858,-0.227 -1.325,-0.227c-0.618,0 -1.148,0.132 -1.587,0.39c-0.442,0.258 -0.804,0.596 -1.088,1.01c-0.283,0.419 -0.485,0.89 -0.612,1.415c-0.127,0.525 -0.179,1.054 -0.163,1.585l-2.125,0c-0.05,-0.9 0.042,-1.733 0.275,-2.5Z" style="fill:#0071bc;fill-rule:nonzero;"/><path d="M730.923,356.673c0.042,0.827 0.175,1.6 0.4,2.327c0.225,0.725 0.587,1.335 1.087,1.835c0.498,0.502 1.198,0.753 2.1,0.753c0.9,-0 1.6,-0.251 2.103,-0.753c0.497,-0.5 0.86,-1.11 1.085,-1.835c0.225,-0.727 0.358,-1.5 0.4,-2.327c0.039,-0.823 0.062,-1.569 0.062,-2.238c0,-0.431 -0.004,-0.91 -0.012,-1.435c-0.011,-0.525 -0.05,-1.05 -0.125,-1.575c-0.077,-0.525 -0.183,-1.037 -0.325,-1.537c-0.142,-0.503 -0.35,-0.938 -0.627,-1.313c-0.273,-0.377 -0.619,-0.677 -1.038,-0.915c-0.414,-0.231 -0.923,-0.35 -1.523,-0.35c-0.6,0 -1.108,0.119 -1.525,0.35c-0.418,0.238 -0.764,0.538 -1.037,0.915c-0.275,0.375 -0.483,0.81 -0.625,1.313c-0.144,0.5 -0.25,1.012 -0.327,1.537c-0.073,0.525 -0.115,1.05 -0.123,1.575c-0.008,0.525 -0.013,1.004 -0.013,1.435c0,0.669 0.021,1.415 0.063,2.238Zm-2.263,-4.235c0.034,-0.7 0.117,-1.384 0.248,-2.05c0.136,-0.667 0.327,-1.3 0.577,-1.901c0.25,-0.6 0.592,-1.124 1.025,-1.574c0.434,-0.453 0.98,-0.811 1.638,-1.075c0.658,-0.269 1.444,-0.401 2.362,-0.401c0.917,0 1.702,0.132 2.363,0.401c0.658,0.264 1.204,0.622 1.637,1.075c0.434,0.45 0.775,0.974 1.025,1.574c0.25,0.601 0.442,1.234 0.575,1.901c0.134,0.666 0.217,1.35 0.248,2.05c0.036,0.7 0.052,1.374 0.052,2.024c0,0.648 -0.016,1.326 -0.052,2.026c-0.031,0.7 -0.114,1.383 -0.248,2.049c-0.133,0.667 -0.325,1.296 -0.575,1.888c-0.25,0.59 -0.591,1.11 -1.025,1.562c-0.433,0.448 -0.975,0.805 -1.627,1.063c-0.648,0.256 -1.439,0.388 -2.373,0.388c-0.918,-0 -1.704,-0.132 -2.362,-0.388c-0.658,-0.258 -1.204,-0.615 -1.638,-1.063c-0.433,-0.452 -0.775,-0.972 -1.025,-1.562c-0.25,-0.592 -0.441,-1.221 -0.577,-1.888c-0.131,-0.666 -0.214,-1.349 -0.248,-2.049c-0.033,-0.7 -0.05,-1.378 -0.05,-2.026c0,-0.65 0.017,-1.324 0.05,-2.024Z" style="fill:#0071bc;fill-rule:nonzero;"/><path d="M752.898,354.825c-0.158,-0.577 -0.4,-1.09 -0.727,-1.54c-0.325,-0.448 -0.74,-0.806 -1.248,-1.072c-0.508,-0.267 -1.106,-0.403 -1.788,-0.403c-0.716,0 -1.325,0.144 -1.827,0.425c-0.5,0.284 -0.906,0.655 -1.223,1.115c-0.318,0.458 -0.545,0.979 -0.689,1.563c-0.142,0.583 -0.211,1.174 -0.211,1.772c0,0.636 0.075,1.248 0.223,1.84c0.152,0.59 0.39,1.11 0.713,1.563c0.325,0.45 0.746,0.812 1.267,1.087c0.514,0.275 1.137,0.413 1.872,0.413c0.732,-0 1.344,-0.142 1.838,-0.425c0.492,-0.284 0.887,-0.661 1.187,-1.126c0.3,-0.466 0.517,-0.999 0.65,-1.602c0.132,-0.598 0.2,-1.216 0.2,-1.848c0,-0.602 -0.081,-1.187 -0.237,-1.762Zm-7.638,-4.587l0,1.747l0.05,0c0.35,-0.714 0.9,-1.235 1.648,-1.562c0.752,-0.325 1.575,-0.488 2.477,-0.488c0.998,0 1.869,0.186 2.613,0.553c0.742,0.366 1.356,0.862 1.85,1.487c0.492,0.625 0.862,1.346 1.112,2.162c0.25,0.815 0.375,1.682 0.375,2.601c0,0.916 -0.12,1.783 -0.362,2.599c-0.244,0.815 -0.608,1.528 -1.102,2.138c-0.49,0.606 -1.106,1.087 -1.846,1.437c-0.746,0.35 -1.608,0.526 -2.59,0.526c-0.316,-0 -0.67,-0.034 -1.062,-0.1c-0.394,-0.069 -0.779,-0.176 -1.163,-0.325c-0.383,-0.15 -0.745,-0.355 -1.087,-0.615c-0.342,-0.256 -0.629,-0.577 -0.863,-0.963l-0.05,0l0,6.653l-2.127,-0l0,-17.85l2.127,-0Z" style="fill:#0071bc;fill-rule:nonzero;"/><path d="M756.858,350.238l2.727,-0l3.098,4.522l3.225,-4.522l2.552,-0l-4.452,5.947l5,6.977l-2.725,0l-3.6,-5.349l-3.598,5.349l-2.577,0l4.852,-6.802l-4.502,-6.122Z" style="fill:#0071bc;fill-rule:nonzero;"/><path d="M789.985,355.985l0,1.703l-5.45,-0l0,5.474l-1.7,0l0,-5.474l-5.45,-0l0,-1.703l5.45,0l0,-5.472l1.7,-0l0,5.472l5.45,0Z" style="fill:#0071bc;fill-rule:nonzero;"/><path d="M317.933,690.531c-18.737,0 -33.933,15.194 -33.933,33.938c0,14.994 9.723,27.712 23.208,32.2c1.698,0.312 2.317,-0.736 2.317,-1.636c0,-0.806 -0.029,-2.939 -0.046,-5.771c-9.439,2.051 -11.431,-4.549 -11.431,-4.549c-1.544,-3.921 -3.769,-4.965 -3.769,-4.965c-3.081,-2.104 0.233,-2.063 0.233,-2.063c3.407,0.24 5.198,3.498 5.198,3.498c3.027,5.186 7.944,3.688 9.878,2.819c0.308,-2.192 1.185,-3.687 2.154,-4.535c-7.536,-0.857 -15.459,-3.769 -15.459,-16.773c0,-3.704 1.323,-6.736 3.494,-9.106c-0.35,-0.859 -1.514,-4.311 0.333,-8.982c0,0 2.848,-0.912 9.332,3.479c2.706,-0.754 5.61,-1.129 8.496,-1.143c2.883,0.014 5.785,0.389 8.495,1.143c6.48,-4.391 9.323,-3.479 9.323,-3.479c1.852,4.671 0.688,8.123 0.34,8.982c2.175,2.37 3.487,5.402 3.487,9.106c0,13.037 -7.935,15.906 -15.493,16.746c1.216,1.048 2.302,3.118 2.302,6.283c-0,4.537 -0.042,8.198 -0.042,9.31c-0,0.909 0.613,1.965 2.333,1.634c13.475,-4.498 23.19,-17.209 23.19,-32.198c-0,-18.744 -15.196,-33.938 -33.94,-33.938Z" style="fill:#fff;"/><path d="M730.435,588.429c-69.473,0 -125.808,56.323 -125.808,125.806c0,55.586 36.048,102.744 86.036,119.38c6.287,1.164 8.595,-2.73 8.595,-6.052c0,-3 -0.116,-12.911 -0.17,-23.423c-35.001,7.61 -42.386,-14.844 -42.386,-14.844c-5.723,-14.542 -13.969,-18.408 -13.969,-18.408c-11.414,-7.809 0.861,-7.648 0.861,-7.648c12.633,0.885 19.285,12.964 19.285,12.964c11.221,19.233 29.431,13.673 36.611,10.458c1.129,-8.129 4.389,-13.683 7.987,-16.822c-27.944,-3.182 -57.319,-13.969 -57.319,-62.175c0,-13.736 4.915,-24.959 12.963,-33.769c-1.306,-3.171 -5.613,-15.965 1.219,-33.294c-0,0 10.564,-3.381 34.606,12.896c10.035,-2.788 20.798,-4.186 31.489,-4.233c10.692,0.047 21.463,1.445 31.517,4.233c24.013,-16.277 34.563,-12.896 34.563,-12.896c6.848,17.329 2.539,30.123 1.233,33.294c8.067,8.81 12.948,20.033 12.948,33.769c-0,48.32 -29.431,58.96 -57.446,62.075c4.513,3.904 8.533,11.56 8.533,23.297c0,16.832 -0.146,30.38 -0.146,34.526c0,3.347 2.265,7.27 8.642,6.035c49.961,-16.654 85.963,-63.796 85.963,-119.363c-0,-69.483 -56.327,-125.806 -125.807,-125.806Z" style="fill:#fff;"/><path d="M652.277,769.06c-0.277,0.627 -1.26,0.813 -2.156,0.384c-0.913,-0.411 -1.425,-1.263 -1.129,-1.89c0.27,-0.644 1.256,-0.821 2.166,-0.394c0.915,0.413 1.436,1.273 1.119,1.9Z" style="fill:#fff;fill-rule:nonzero;"/><path d="M657.373,774.744c-0.6,0.556 -1.773,0.298 -2.569,-0.581c-0.823,-0.878 -0.977,-2.051 -0.369,-2.615c0.619,-0.556 1.757,-0.296 2.582,0.581c0.823,0.888 0.983,2.052 0.356,2.615Z" style="fill:#fff;fill-rule:nonzero;"/><path d="M662.333,781.99c-0.771,0.535 -2.031,0.033 -2.81,-1.086c-0.771,-1.119 -0.771,-2.46 0.017,-2.998c0.781,-0.537 2.022,-0.054 2.812,1.057c0.769,1.135 0.769,2.479 -0.019,3.027Z" style="fill:#fff;fill-rule:nonzero;"/><path d="M669.129,788.99c-0.689,0.76 -2.158,0.556 -3.233,-0.482c-1.1,-1.014 -1.406,-2.454 -0.715,-3.214c0.698,-0.763 2.175,-0.548 3.259,0.481c1.091,1.012 1.425,2.462 0.689,3.215Z" style="fill:#fff;fill-rule:nonzero;"/><path d="M678.504,793.054c-0.304,0.986 -1.719,1.433 -3.144,1.015c-1.423,-0.432 -2.354,-1.586 -2.066,-2.581c0.296,-0.992 1.716,-1.459 3.152,-1.011c1.421,0.429 2.354,1.575 2.058,2.577Z" style="fill:#fff;fill-rule:nonzero;"/><path d="M688.8,793.808c0.035,1.038 -1.173,1.898 -2.669,1.915c-1.504,0.035 -2.721,-0.804 -2.737,-1.825c-0,-1.048 1.181,-1.9 2.685,-1.925c1.496,-0.029 2.721,0.804 2.721,1.835Z" style="fill:#fff;fill-rule:nonzero;"/><path d="M698.381,792.177c0.179,1.013 -0.86,2.052 -2.346,2.327c-1.46,0.269 -2.812,-0.356 -2.998,-1.36c-0.181,-1.038 0.878,-2.077 2.336,-2.346c1.487,-0.258 2.819,0.35 3.008,1.379Z" style="fill:#fff;fill-rule:nonzero;"/><path d="M468.537,576.067l0,1.041" style="fill:none;stroke:#1981bd;stroke-width:2.08px;"/><path d="M468.537,581.275l0,279.152" style="fill:none;stroke:#1981bd;stroke-width:2.08px;stroke-dasharray:2.08,4.17;"/><path d="M468.537,862.51l0,1.042" style="fill:none;stroke:#1981bd;stroke-width:2.08px;"/><path d="M277.658,892.752c-0.793,-0.577 -1.804,-0.862 -3.037,-0.862c-0.5,-0 -0.992,0.05 -1.475,0.148c-0.486,0.102 -0.913,0.268 -1.288,0.499c-0.375,0.238 -0.675,0.548 -0.902,0.94c-0.225,0.392 -0.337,0.879 -0.337,1.463c-0,0.547 0.162,0.995 0.489,1.337c0.323,0.342 0.759,0.621 1.3,0.838c0.542,0.216 1.152,0.395 1.838,0.537c0.683,0.142 1.379,0.296 2.087,0.461c0.709,0.166 1.402,0.364 2.088,0.589c0.683,0.225 1.296,0.529 1.837,0.913c0.542,0.381 0.975,0.866 1.3,1.448c0.325,0.585 0.488,1.318 0.488,2.202c-0,0.95 -0.213,1.76 -0.638,2.437c-0.427,0.675 -0.97,1.225 -1.637,1.65c-0.667,0.425 -1.413,0.733 -2.238,0.925c-0.825,0.192 -1.646,0.288 -2.462,0.288c-1,-0 -1.946,-0.125 -2.838,-0.375c-0.891,-0.25 -1.675,-0.63 -2.35,-1.138c-0.675,-0.508 -1.208,-1.16 -1.6,-1.952c-0.391,-0.79 -0.587,-1.727 -0.587,-2.81l2.25,-0c-0,0.75 0.144,1.395 0.437,1.937c0.29,0.542 0.675,0.985 1.15,1.335c0.473,0.35 1.025,0.611 1.663,0.778c0.633,0.166 1.281,0.248 1.95,0.248c0.533,-0 1.071,-0.048 1.612,-0.151c0.542,-0.097 1.029,-0.268 1.463,-0.512c0.433,-0.24 0.783,-0.569 1.05,-0.985c0.266,-0.419 0.4,-0.952 0.4,-1.6c-0,-0.617 -0.165,-1.117 -0.488,-1.5c-0.325,-0.382 -0.76,-0.696 -1.3,-0.938c-0.543,-0.242 -1.156,-0.437 -1.837,-0.587c-0.684,-0.152 -1.379,-0.307 -2.088,-0.465c-0.708,-0.156 -1.404,-0.34 -2.087,-0.55c-0.684,-0.206 -1.298,-0.481 -1.838,-0.823c-0.541,-0.342 -0.977,-0.783 -1.3,-1.325c-0.325,-0.542 -0.489,-1.221 -0.489,-2.04c-0,-0.897 0.183,-1.677 0.552,-2.335c0.366,-0.658 0.854,-1.2 1.462,-1.627c0.609,-0.423 1.3,-0.74 2.075,-0.948c0.775,-0.208 1.571,-0.312 2.388,-0.312c0.916,-0 1.767,0.11 2.55,0.325c0.783,0.216 1.471,0.558 2.06,1.025c0.594,0.466 1.061,1.054 1.402,1.762c0.34,0.708 0.529,1.554 0.563,2.538l-2.25,-0c-0.136,-1.286 -0.596,-2.213 -1.388,-2.788Z" style="fill:#0071bc;fill-rule:nonzero;"/><path d="M286.571,895.24l-0,1.9l0.05,-0c0.964,-1.469 2.356,-2.2 4.173,-2.2c0.802,-0 1.525,0.166 2.175,0.5c0.652,0.333 1.11,0.897 1.377,1.7c0.433,-0.7 1.004,-1.24 1.712,-1.625c0.709,-0.386 1.488,-0.575 2.336,-0.575c0.65,-0 1.239,0.07 1.764,0.21c0.525,0.142 0.973,0.365 1.35,0.662c0.375,0.303 0.665,0.69 0.873,1.165c0.211,0.475 0.313,1.046 0.313,1.713l-0,9.472l-2.123,0l-0,-8.472c-0,-0.403 -0.036,-0.775 -0.102,-1.125c-0.065,-0.35 -0.19,-0.657 -0.373,-0.913c-0.186,-0.26 -0.44,-0.462 -0.763,-0.614c-0.325,-0.151 -0.745,-0.223 -1.262,-0.223c-1.05,-0 -1.875,0.3 -2.475,0.9c-0.6,0.6 -0.9,1.4 -0.9,2.4l-0,8.047l-2.127,0l-0,-8.472c-0,-0.417 -0.038,-0.8 -0.111,-1.15c-0.075,-0.35 -0.204,-0.655 -0.387,-0.913c-0.186,-0.258 -0.429,-0.458 -0.738,-0.602c-0.31,-0.142 -0.706,-0.21 -1.187,-0.21c-0.617,-0 -1.146,0.122 -1.588,0.375c-0.443,0.25 -0.802,0.548 -1.075,0.898c-0.275,0.35 -0.475,0.712 -0.6,1.089c-0.127,0.375 -0.187,0.688 -0.187,0.938l-0,8.047l-2.125,0l-0,-12.922l2,-0Z" style="fill:#0071bc;fill-rule:nonzero;"/><path d="M312.844,901.925c-0.434,0.094 -0.886,0.167 -1.361,0.227c-0.475,0.058 -0.956,0.123 -1.439,0.2c-0.484,0.073 -0.917,0.196 -1.298,0.363c-0.386,0.166 -0.698,0.402 -0.94,0.712c-0.241,0.308 -0.36,0.727 -0.36,1.26c-0,0.35 0.069,0.648 0.21,0.888c0.142,0.244 0.325,0.44 0.55,0.59c0.225,0.147 0.492,0.256 0.802,0.325c0.309,0.066 0.619,0.098 0.936,0.098c0.7,-0 1.3,-0.094 1.802,-0.286c0.498,-0.192 0.906,-0.433 1.223,-0.727c0.316,-0.29 0.552,-0.606 0.7,-0.948c0.15,-0.342 0.225,-0.662 0.225,-0.964l-0,-2.173c-0.267,0.2 -0.617,0.345 -1.05,0.435Zm2.977,6.515c-0.552,-0 -0.988,-0.155 -1.315,-0.465c-0.323,-0.306 -0.487,-0.81 -0.487,-1.51c-0.584,0.7 -1.263,1.204 -2.038,1.51c-0.775,0.31 -1.612,0.465 -2.512,0.465c-0.581,-0 -1.134,-0.063 -1.65,-0.188c-0.517,-0.125 -0.971,-0.333 -1.361,-0.627c-0.391,-0.29 -0.7,-0.665 -0.925,-1.123c-0.227,-0.458 -0.337,-1.012 -0.337,-1.665c-0,-0.731 0.125,-1.331 0.373,-1.797c0.25,-0.467 0.579,-0.846 0.987,-1.14c0.409,-0.29 0.875,-0.512 1.4,-0.662c0.525,-0.148 1.063,-0.273 1.615,-0.375c0.581,-0.115 1.137,-0.203 1.662,-0.261c0.523,-0.058 0.988,-0.142 1.388,-0.252c0.398,-0.106 0.714,-0.265 0.95,-0.473c0.231,-0.21 0.35,-0.512 0.35,-0.915c-0,-0.464 -0.088,-0.839 -0.263,-1.122c-0.175,-0.286 -0.402,-0.5 -0.677,-0.65c-0.273,-0.152 -0.583,-0.253 -0.925,-0.303c-0.341,-0.047 -0.679,-0.072 -1.01,-0.072c-0.9,-0 -1.65,0.17 -2.25,0.512c-0.602,0.342 -0.927,0.988 -0.977,1.938l-2.125,-0c0.033,-0.8 0.2,-1.475 0.502,-2.027c0.3,-0.55 0.698,-0.994 1.198,-1.336c0.5,-0.342 1.075,-0.59 1.725,-0.739c0.65,-0.148 1.333,-0.223 2.05,-0.223c0.585,-0 1.162,0.039 1.737,0.125c0.577,0.081 1.098,0.252 1.563,0.512c0.466,0.256 0.844,0.621 1.125,1.088c0.283,0.466 0.425,1.073 0.425,1.825l-0,6.65c-0,0.5 0.031,0.866 0.087,1.098c0.059,0.235 0.257,0.35 0.59,0.35c0.183,-0 0.398,-0.04 0.65,-0.123l-0,1.65c-0.369,0.214 -0.875,0.325 -1.525,0.325Z" style="fill:#0071bc;fill-rule:nonzero;"/><rect x="319.444" y="890.315" width="2.127" height="17.848" style="fill:#0071bc;fill-rule:nonzero;"/><rect x="324.994" y="890.315" width="2.125" height="17.848" style="fill:#0071bc;fill-rule:nonzero;"/><path d="M212.196,927.112l-0,-1.872l2.175,-0l-0,-1.925c-0,-1.05 0.304,-1.846 0.912,-2.388c0.609,-0.542 1.496,-0.815 2.663,-0.815c0.2,0 0.429,0.017 0.687,0.051c0.259,0.035 0.488,0.085 0.688,0.15l-0,1.852c-0.184,-0.067 -0.384,-0.115 -0.6,-0.14c-0.217,-0.023 -0.417,-0.035 -0.6,-0.035c-0.517,-0 -0.917,0.1 -1.2,0.298c-0.283,0.202 -0.425,0.585 -0.425,1.15l-0,1.802l2.5,-0l-0,1.872l-2.5,0l-0,11.053l-2.125,-0l-0,-11.053l-2.175,0Z" style="fill:#0071bc;fill-rule:nonzero;"/><path d="M222.758,933.802c0.207,0.608 0.496,1.115 0.863,1.525c0.366,0.408 0.796,0.721 1.285,0.938c0.492,0.214 1.015,0.325 1.563,0.325c0.552,-0 1.073,-0.111 1.562,-0.325c0.492,-0.217 0.921,-0.53 1.29,-0.938c0.364,-0.41 0.654,-0.917 0.862,-1.525c0.209,-0.608 0.313,-1.304 0.313,-2.087c-0,-0.786 -0.104,-1.48 -0.313,-2.088c-0.208,-0.61 -0.498,-1.121 -0.862,-1.537c-0.369,-0.417 -0.798,-0.734 -1.29,-0.95c-0.489,-0.219 -1.01,-0.328 -1.562,-0.328c-0.548,0 -1.071,0.109 -1.563,0.328c-0.489,0.216 -0.919,0.533 -1.285,0.95c-0.367,0.416 -0.656,0.927 -0.863,1.537c-0.208,0.608 -0.312,1.302 -0.312,2.088c-0,0.783 0.104,1.479 0.312,2.087Zm-2.162,-4.75c0.266,-0.825 0.664,-1.542 1.2,-2.152c0.533,-0.606 1.191,-1.085 1.975,-1.435c0.783,-0.35 1.683,-0.525 2.698,-0.525c1.035,-0 1.939,0.175 2.714,0.525c0.775,0.35 1.427,0.829 1.963,1.435c0.531,0.61 0.931,1.327 1.2,2.152c0.266,0.823 0.4,1.713 0.4,2.663c-0,0.948 -0.134,1.833 -0.4,2.647c-0.269,0.819 -0.669,1.532 -1.2,2.14c-0.536,0.608 -1.188,1.083 -1.963,1.425c-0.775,0.34 -1.679,0.511 -2.714,0.511c-1.015,-0 -1.915,-0.171 -2.698,-0.511c-0.784,-0.342 -1.442,-0.817 -1.975,-1.425c-0.536,-0.608 -0.934,-1.321 -1.2,-2.14c-0.267,-0.814 -0.4,-1.699 -0.4,-2.647c-0,-0.95 0.133,-1.84 0.4,-2.663Z" style="fill:#0071bc;fill-rule:nonzero;"/><path d="M237.171,925.24l-0,2.723l0.05,-0c0.516,-1.051 1.15,-1.823 1.9,-2.323c0.75,-0.5 1.7,-0.734 2.85,-0.7l-0,2.25c-0.85,-0 -1.575,0.116 -2.175,0.35c-0.6,0.231 -1.086,0.572 -1.45,1.025c-0.367,0.447 -0.636,0.995 -0.8,1.635c-0.167,0.644 -0.25,1.379 -0.25,2.215l-0,5.75l-2.125,-0l-0,-12.925l2,-0Z" style="fill:#0071bc;fill-rule:nonzero;"/><path d="M255.694,938.165l-0,-12.7l-4.6,-0l-0,-1.7c0.6,-0 1.183,-0.046 1.75,-0.14c0.566,-0.09 1.079,-0.26 1.537,-0.512c0.459,-0.248 0.846,-0.59 1.165,-1.023c0.314,-0.434 0.531,-0.984 0.65,-1.65l1.623,-0l-0,17.725l-2.125,-0Z" style="fill:#0071bc;fill-rule:nonzero;"/><path d="M268.392,928.952c-0.446,0.206 -0.832,0.492 -1.146,0.85c-0.317,0.358 -0.556,0.783 -0.713,1.273c-0.158,0.494 -0.237,1.015 -0.237,1.563c-0,0.55 0.083,1.066 0.25,1.549c0.164,0.486 0.404,0.9 0.712,1.25c0.309,0.351 0.692,0.632 1.15,0.838c0.459,0.21 0.979,0.315 1.563,0.315c0.583,-0 1.096,-0.105 1.537,-0.315c0.44,-0.206 0.813,-0.496 1.113,-0.862c0.3,-0.367 0.529,-0.788 0.687,-1.261c0.159,-0.477 0.238,-0.973 0.238,-1.489c-0,-0.55 -0.071,-1.071 -0.213,-1.563c-0.141,-0.49 -0.362,-0.915 -0.662,-1.273c-0.3,-0.358 -0.675,-0.648 -1.127,-0.862c-0.448,-0.217 -0.975,-0.328 -1.573,-0.328c-0.6,0 -1.125,0.107 -1.579,0.315Zm3.852,-5.912c-0.517,-0.486 -1.198,-0.725 -2.048,-0.725c-0.902,-0 -1.629,0.22 -2.177,0.662c-0.548,0.44 -0.979,0.998 -1.286,1.673c-0.308,0.677 -0.521,1.404 -0.639,2.19c-0.115,0.781 -0.181,1.516 -0.198,2.2l0.05,0.05c0.5,-0.817 1.121,-1.409 1.862,-1.775c0.742,-0.367 1.594,-0.552 2.563,-0.552c0.85,-0 1.612,0.145 2.287,0.439c0.675,0.292 1.242,0.696 1.7,1.213c0.459,0.516 0.813,1.123 1.063,1.822c0.25,0.703 0.375,1.461 0.375,2.278c-0,0.647 -0.1,1.323 -0.3,2.022c-0.2,0.701 -0.529,1.34 -0.988,1.913c-0.46,0.577 -1.066,1.05 -1.825,1.425c-0.758,0.377 -1.695,0.563 -2.814,0.563c-1.315,-0 -2.375,-0.267 -3.173,-0.798c-0.8,-0.534 -1.417,-1.217 -1.85,-2.052c-0.436,-0.832 -0.721,-1.75 -0.863,-2.75c-0.143,-0.998 -0.212,-1.965 -0.212,-2.901c-0,-1.214 0.104,-2.393 0.312,-3.537c0.209,-1.14 0.563,-2.152 1.063,-3.035c0.5,-0.884 1.164,-1.592 1.998,-2.125c0.835,-0.534 1.885,-0.8 3.152,-0.8c1.466,-0 2.633,0.385 3.5,1.16c0.866,0.775 1.367,1.898 1.5,3.365l-2.127,-0c-0.098,-0.803 -0.409,-1.442 -0.925,-1.925Z" style="fill:#0071bc;fill-rule:nonzero;"/><path d="M288.158,929.827c-0.158,-0.575 -0.402,-1.087 -0.725,-1.54c-0.327,-0.45 -0.741,-0.806 -1.25,-1.072c-0.51,-0.267 -1.106,-0.403 -1.787,-0.403c-0.719,0 -1.327,0.144 -1.825,0.428c-0.502,0.283 -0.909,0.654 -1.225,1.112c-0.319,0.456 -0.546,0.977 -0.688,1.563c-0.143,0.583 -0.212,1.173 -0.212,1.775c-0,0.633 0.075,1.245 0.225,1.835c0.148,0.594 0.387,1.115 0.71,1.562c0.327,0.453 0.746,0.815 1.265,1.09c0.514,0.273 1.142,0.413 1.875,0.413c0.731,-0 1.346,-0.144 1.837,-0.425c0.492,-0.284 0.886,-0.659 1.186,-1.125c0.3,-0.467 0.519,-1.002 0.65,-1.6c0.133,-0.602 0.202,-1.217 0.202,-1.853c-0,-0.597 -0.079,-1.187 -0.238,-1.76Zm-7.637,-4.587l-0,1.75l0.05,-0c0.35,-0.717 0.898,-1.238 1.65,-1.563c0.75,-0.325 1.575,-0.487 2.475,-0.487c1,-0 1.871,0.183 2.612,0.55c0.742,0.364 1.357,0.862 1.85,1.485c0.492,0.625 0.861,1.348 1.111,2.165c0.252,0.816 0.377,1.683 0.377,2.6c-0,0.914 -0.121,1.781 -0.365,2.6c-0.239,0.816 -0.608,1.529 -1.098,2.135c-0.491,0.61 -1.11,1.087 -1.85,1.438c-0.743,0.35 -1.606,0.525 -2.587,0.525c-0.319,-0 -0.673,-0.034 -1.065,-0.098c-0.391,-0.069 -0.779,-0.175 -1.16,-0.328c-0.384,-0.15 -0.748,-0.354 -1.088,-0.612c-0.341,-0.258 -0.629,-0.579 -0.862,-0.962l-0.05,-0l-0,6.649l-2.125,0l-0,-17.847l2.125,-0Z" style="fill:#0071bc;fill-rule:nonzero;"/><path d="M292.119,925.24l2.725,-0l3.1,4.522l3.225,-4.522l2.552,-0l-4.452,5.95l5,6.975l-2.725,-0l-3.6,-5.352l-3.598,5.352l-2.577,-0l4.85,-6.8l-4.5,-6.125Z" style="fill:#0071bc;fill-rule:nonzero;"/><rect x="305.744" y="930.212" width="7.225" height="2.002" style="fill:#0071bc;fill-rule:nonzero;"/><path d="M320.994,938.165l-0,-12.7l-4.6,-0l-0,-1.7c0.6,-0 1.183,-0.046 1.75,-0.14c0.566,-0.09 1.079,-0.26 1.537,-0.512c0.459,-0.248 0.846,-0.59 1.163,-1.023c0.316,-0.434 0.533,-0.984 0.65,-1.65l1.625,-0l-0,17.725l-2.125,-0Z" style="fill:#0071bc;fill-rule:nonzero;"/><path d="M329.494,924.215c0.233,-0.769 0.596,-1.43 1.087,-1.99c0.492,-0.556 1.104,-0.994 1.838,-1.31c0.733,-0.317 1.566,-0.475 2.5,-0.475c0.766,-0 1.487,0.112 2.162,0.337c0.675,0.223 1.263,0.55 1.763,0.975c0.5,0.425 0.896,0.954 1.187,1.585c0.292,0.634 0.438,1.369 0.438,2.2c-0,0.786 -0.121,1.478 -0.363,2.076c-0.241,0.602 -0.562,1.139 -0.962,1.614c-0.4,0.473 -0.859,0.904 -1.375,1.288c-0.517,0.381 -1.05,0.748 -1.6,1.097c-0.55,0.334 -1.1,0.663 -1.65,0.99c-0.55,0.325 -1.054,0.671 -1.513,1.038c-0.458,0.364 -0.85,0.76 -1.175,1.187c-0.325,0.423 -0.537,0.91 -0.637,1.46l9.1,0l-0,1.878l-11.575,-0c0.083,-1.05 0.271,-1.946 0.562,-2.688c0.292,-0.744 0.663,-1.39 1.113,-1.94c0.45,-0.55 0.958,-1.031 1.525,-1.447c0.566,-0.417 1.158,-0.809 1.775,-1.177c0.75,-0.465 1.408,-0.896 1.975,-1.286c0.566,-0.392 1.037,-0.79 1.412,-1.187c0.375,-0.4 0.659,-0.836 0.85,-1.3c0.192,-0.467 0.288,-1.009 0.288,-1.628c-0,-0.481 -0.092,-0.918 -0.275,-1.312c-0.184,-0.39 -0.429,-0.727 -0.738,-1.01c-0.308,-0.286 -0.671,-0.5 -1.087,-0.65c-0.417,-0.153 -0.859,-0.225 -1.325,-0.225c-0.617,-0 -1.146,0.129 -1.588,0.387c-0.441,0.258 -0.804,0.596 -1.087,1.013c-0.284,0.414 -0.488,0.887 -0.613,1.412c-0.125,0.525 -0.179,1.054 -0.162,1.585l-2.125,0c-0.05,-0.897 0.041,-1.733 0.275,-2.497Z" style="fill:#0071bc;fill-rule:nonzero;"/><path d="M345.381,931.677c0.042,0.825 0.177,1.6 0.4,2.325c0.225,0.723 0.588,1.338 1.088,1.835c0.5,0.503 1.2,0.753 2.1,0.753c0.902,-0 1.6,-0.25 2.102,-0.753c0.498,-0.497 0.86,-1.112 1.087,-1.835c0.223,-0.725 0.357,-1.5 0.398,-2.325c0.042,-0.825 0.063,-1.573 0.063,-2.237c-0,-0.436 -0.004,-0.913 -0.013,-1.438c-0.008,-0.525 -0.05,-1.05 -0.125,-1.575c-0.075,-0.527 -0.181,-1.037 -0.323,-1.537c-0.143,-0.5 -0.35,-0.94 -0.627,-1.313c-0.273,-0.375 -0.618,-0.681 -1.037,-0.912c-0.417,-0.234 -0.925,-0.35 -1.525,-0.35c-0.6,-0 -1.109,0.116 -1.525,0.35c-0.417,0.231 -0.763,0.537 -1.038,0.912c-0.275,0.373 -0.483,0.813 -0.625,1.313c-0.141,0.5 -0.25,1.01 -0.325,1.537c-0.075,0.525 -0.116,1.05 -0.125,1.575c-0.008,0.525 -0.012,1.002 -0.012,1.438c-0,0.664 0.021,1.412 0.062,2.237Zm-2.262,-4.24c0.033,-0.7 0.116,-1.383 0.25,-2.047c0.133,-0.667 0.327,-1.3 0.575,-1.9c0.25,-0.6 0.591,-1.125 1.025,-1.575c0.433,-0.45 0.979,-0.809 1.637,-1.078c0.661,-0.264 1.446,-0.397 2.363,-0.397c0.916,-0 1.704,0.133 2.364,0.397c0.657,0.269 1.202,0.628 1.636,1.078c0.433,0.45 0.775,0.975 1.025,1.575c0.25,0.6 0.441,1.233 0.575,1.9c0.133,0.664 0.216,1.347 0.25,2.047c0.033,0.701 0.05,1.376 0.05,2.028c-0,0.65 -0.017,1.325 -0.05,2.025c-0.034,0.698 -0.117,1.383 -0.25,2.047c-0.134,0.667 -0.325,1.298 -0.575,1.888c-0.25,0.594 -0.592,1.115 -1.025,1.563c-0.434,0.452 -0.975,0.806 -1.625,1.062c-0.65,0.26 -1.44,0.388 -2.375,0.388c-0.917,-0 -1.702,-0.128 -2.363,-0.388c-0.658,-0.256 -1.204,-0.61 -1.637,-1.062c-0.434,-0.448 -0.775,-0.969 -1.025,-1.563c-0.248,-0.59 -0.442,-1.221 -0.575,-1.888c-0.134,-0.664 -0.217,-1.349 -0.25,-2.047c-0.034,-0.7 -0.05,-1.375 -0.05,-2.025c-0,-0.652 0.016,-1.327 0.05,-2.028Z" style="fill:#0071bc;fill-rule:nonzero;"/><path d="M367.356,929.827c-0.158,-0.575 -0.4,-1.087 -0.725,-1.54c-0.325,-0.45 -0.741,-0.806 -1.25,-1.072c-0.508,-0.267 -1.104,-0.403 -1.787,-0.403c-0.717,0 -1.325,0.144 -1.825,0.428c-0.5,0.283 -0.909,0.654 -1.225,1.112c-0.317,0.456 -0.546,0.977 -0.688,1.563c-0.141,0.583 -0.212,1.173 -0.212,1.775c-0,0.633 0.075,1.245 0.225,1.835c0.15,0.594 0.387,1.115 0.712,1.562c0.325,0.453 0.746,0.815 1.265,1.09c0.514,0.273 1.139,0.413 1.873,0.413c0.733,-0 1.346,-0.144 1.837,-0.425c0.492,-0.284 0.888,-0.659 1.188,-1.125c0.3,-0.467 0.516,-1.002 0.65,-1.6c0.133,-0.602 0.2,-1.217 0.2,-1.853c-0,-0.597 -0.079,-1.187 -0.238,-1.76Zm-7.637,-4.587l-0,1.75l0.05,-0c0.35,-0.717 0.9,-1.238 1.65,-1.563c0.75,-0.325 1.575,-0.487 2.475,-0.487c1,-0 1.871,0.183 2.612,0.55c0.742,0.364 1.359,0.862 1.85,1.485c0.492,0.625 0.863,1.348 1.113,2.165c0.25,0.816 0.375,1.683 0.375,2.6c-0,0.914 -0.121,1.781 -0.363,2.6c-0.241,0.816 -0.608,1.529 -1.1,2.135c-0.491,0.61 -1.108,1.087 -1.848,1.438c-0.743,0.35 -1.606,0.525 -2.589,0.525c-0.317,-0 -0.671,-0.034 -1.063,-0.098c-0.391,-0.069 -0.779,-0.175 -1.162,-0.328c-0.384,-0.15 -0.746,-0.354 -1.086,-0.612c-0.343,-0.258 -0.631,-0.579 -0.864,-0.962l-0.05,-0l-0,6.649l-2.125,0l-0,-17.847l2.125,-0Z" style="fill:#0071bc;fill-rule:nonzero;"/><path d="M371.319,925.24l2.725,-0l3.1,4.522l3.225,-4.522l2.55,-0l-4.45,5.95l5,6.975l-2.725,-0l-3.6,-5.352l-3.6,5.352l-2.575,-0l4.85,-6.8l-4.5,-6.125Z" style="fill:#0071bc;fill-rule:nonzero;"/><path d="M699.235,890.312l0,15.848l9.45,0l0,2.002l-11.823,0l0,-17.85l2.373,0Z" style="fill:#0071bc;fill-rule:nonzero;"/><path d="M717.36,901.925c-0.435,0.092 -0.885,0.167 -1.362,0.225c-0.475,0.058 -0.956,0.125 -1.438,0.198c-0.483,0.077 -0.918,0.198 -1.3,0.362c-0.383,0.167 -0.695,0.407 -0.937,0.715c-0.244,0.306 -0.36,0.729 -0.36,1.263c-0,0.349 0.068,0.645 0.21,0.887c0.142,0.24 0.325,0.435 0.55,0.585c0.223,0.15 0.492,0.261 0.802,0.327c0.306,0.067 0.617,0.101 0.935,0.101c0.7,-0 1.3,-0.098 1.8,-0.288c0.498,-0.192 0.909,-0.433 1.225,-0.725c0.315,-0.294 0.552,-0.61 0.7,-0.952c0.148,-0.34 0.225,-0.66 0.225,-0.96l0,-2.178c-0.268,0.202 -0.618,0.346 -1.05,0.44Zm2.975,6.51c-0.55,0 -0.987,-0.152 -1.314,-0.46c-0.323,-0.308 -0.486,-0.812 -0.486,-1.513c-0.583,0.701 -1.264,1.205 -2.037,1.513c-0.777,0.308 -1.613,0.46 -2.515,0.46c-0.581,0 -1.131,-0.06 -1.648,-0.187c-0.516,-0.123 -0.972,-0.333 -1.362,-0.623c-0.392,-0.292 -0.7,-0.667 -0.923,-1.127c-0.229,-0.456 -0.338,-1.013 -0.338,-1.661c0,-0.733 0.123,-1.333 0.373,-1.802c0.248,-0.464 0.58,-0.843 0.988,-1.135c0.408,-0.292 0.875,-0.512 1.4,-0.662c0.525,-0.15 1.062,-0.278 1.612,-0.375c0.582,-0.117 1.138,-0.205 1.663,-0.265c0.525,-0.056 0.987,-0.14 1.387,-0.248c0.4,-0.11 0.717,-0.269 0.95,-0.475c0.232,-0.208 0.35,-0.512 0.35,-0.913c0,-0.466 -0.087,-0.841 -0.262,-1.127c-0.175,-0.281 -0.4,-0.497 -0.675,-0.647c-0.275,-0.15 -0.583,-0.253 -0.927,-0.301c-0.342,-0.049 -0.679,-0.077 -1.011,-0.077c-0.9,0 -1.65,0.173 -2.25,0.513c-0.6,0.342 -0.925,0.99 -0.975,1.94l-2.125,-0c0.034,-0.8 0.2,-1.475 0.5,-2.025c0.3,-0.55 0.7,-0.996 1.198,-1.338c0.5,-0.344 1.077,-0.587 1.725,-0.737c0.652,-0.15 1.336,-0.226 2.052,-0.226c0.584,0 1.163,0.042 1.738,0.123c0.575,0.086 1.096,0.257 1.562,0.513c0.467,0.26 0.842,0.623 1.125,1.09c0.282,0.464 0.425,1.075 0.425,1.825l0,6.647c0,0.5 0.03,0.867 0.088,1.103c0.058,0.233 0.254,0.35 0.587,0.35c0.184,-0 0.398,-0.042 0.652,-0.126l0,1.65c-0.368,0.217 -0.874,0.323 -1.527,0.323Z" style="fill:#0071bc;fill-rule:nonzero;"/><path d="M725.76,895.235l0,2.728l0.048,-0c0.517,-1.051 1.152,-1.825 1.9,-2.328c0.752,-0.497 1.702,-0.731 2.852,-0.698l0,2.251c-0.85,-0 -1.575,0.114 -2.177,0.35c-0.598,0.233 -1.081,0.575 -1.448,1.024c-0.366,0.451 -0.635,0.994 -0.802,1.638c-0.166,0.642 -0.248,1.379 -0.248,2.212l0,5.75l-2.125,0l0,-12.927l2,0Z" style="fill:#0071bc;fill-rule:nonzero;"/><path d="M738.446,905.998c0.494,-0.29 0.887,-0.673 1.189,-1.148c0.3,-0.475 0.521,-1.012 0.663,-1.612c0.142,-0.601 0.212,-1.201 0.212,-1.8c0,-0.567 -0.066,-1.125 -0.2,-1.678c-0.133,-0.55 -0.345,-1.045 -0.639,-1.485c-0.29,-0.444 -0.671,-0.798 -1.136,-1.062c-0.466,-0.269 -1.033,-0.403 -1.7,-0.403c-0.683,0 -1.266,0.132 -1.75,0.388c-0.483,0.258 -0.879,0.606 -1.187,1.039c-0.31,0.434 -0.533,0.934 -0.675,1.498c-0.144,0.569 -0.213,1.161 -0.213,1.777c0,0.584 0.057,1.165 0.175,1.751c0.117,0.583 0.317,1.112 0.598,1.587c0.286,0.475 0.661,0.858 1.127,1.148c0.467,0.294 1.05,0.439 1.75,0.439c0.7,0 1.294,-0.145 1.786,-0.439Zm2.714,5.814c-0.968,1.05 -2.483,1.575 -4.547,1.575c-0.603,0 -1.213,-0.066 -1.84,-0.199c-0.625,-0.134 -1.192,-0.351 -1.702,-0.65c-0.508,-0.303 -0.927,-0.692 -1.261,-1.178c-0.333,-0.483 -0.516,-1.073 -0.55,-1.772l2.125,-0c0.017,0.381 0.138,0.708 0.363,0.974c0.225,0.265 0.5,0.482 0.825,0.648c0.325,0.167 0.679,0.29 1.062,0.365c0.382,0.075 0.748,0.113 1.098,0.113c0.702,-0 1.294,-0.123 1.777,-0.363c0.482,-0.242 0.886,-0.575 1.2,-1.002c0.315,-0.423 0.546,-0.935 0.688,-1.538c0.14,-0.597 0.214,-1.256 0.214,-1.973l0,-0.85l-0.052,0c-0.368,0.801 -0.92,1.388 -1.662,1.761c-0.742,0.377 -1.529,0.564 -2.363,0.564c-0.966,0 -1.808,-0.175 -2.523,-0.525c-0.718,-0.35 -1.318,-0.82 -1.804,-1.414c-0.481,-0.59 -0.846,-1.281 -1.085,-2.075c-0.242,-0.79 -0.363,-1.627 -0.363,-2.51c0,-0.767 0.1,-1.555 0.303,-2.365c0.197,-0.804 0.531,-1.54 0.997,-2.2c0.467,-0.656 1.086,-1.198 1.85,-1.625c0.767,-0.423 1.709,-0.636 2.823,-0.636c0.819,0 1.567,0.182 2.25,0.538c0.684,0.358 1.217,0.896 1.602,1.612l0.027,0l0,-1.852l1.998,0l0,11.827c0,2.115 -0.485,3.701 -1.45,4.75Z" style="fill:#0071bc;fill-rule:nonzero;"/><path d="M754.446,899.035c-0.192,-0.448 -0.448,-0.837 -0.773,-1.16c-0.325,-0.327 -0.711,-0.583 -1.152,-0.775c-0.442,-0.192 -0.927,-0.29 -1.461,-0.29c-0.55,0 -1.047,0.098 -1.489,0.29c-0.442,0.192 -0.821,0.454 -1.138,0.788c-0.314,0.333 -0.566,0.72 -0.75,1.16c-0.183,0.444 -0.291,0.915 -0.323,1.415l7.423,-0c-0.031,-0.5 -0.145,-0.976 -0.337,-1.428Zm0.512,8.303c-0.964,0.731 -2.183,1.097 -3.65,1.097c-1.033,0 -1.927,-0.166 -2.685,-0.498c-0.761,-0.333 -1.398,-0.799 -1.913,-1.399c-0.516,-0.601 -0.904,-1.317 -1.162,-2.15c-0.258,-0.836 -0.406,-1.742 -0.438,-2.728c0,-0.981 0.148,-1.881 0.45,-2.698c0.3,-0.816 0.719,-1.525 1.261,-2.124c0.542,-0.6 1.183,-1.067 1.927,-1.401c0.739,-0.333 1.552,-0.5 2.437,-0.5c1.15,0 2.105,0.238 2.863,0.713c0.756,0.475 1.367,1.079 1.825,1.812c0.456,0.734 0.775,1.534 0.95,2.4c0.175,0.867 0.244,1.692 0.21,2.473l-9.673,0c-0.018,0.569 0.05,1.107 0.2,1.615c0.15,0.508 0.392,0.958 0.725,1.348c0.332,0.394 0.757,0.704 1.273,0.94c0.519,0.233 1.127,0.35 1.825,0.35c0.902,-0 1.64,-0.209 2.213,-0.626c0.577,-0.416 0.956,-1.049 1.139,-1.9l2.1,0c-0.285,1.451 -0.908,2.542 -1.877,3.276Z" style="fill:#0071bc;fill-rule:nonzero;"/><path d="M761.16,895.235l0,2.728l0.048,-0c0.517,-1.051 1.152,-1.825 1.9,-2.328c0.75,-0.497 1.702,-0.731 2.852,-0.698l0,2.251c-0.852,-0 -1.575,0.114 -2.175,0.35c-0.6,0.233 -1.085,0.575 -1.452,1.024c-0.364,0.451 -0.631,0.994 -0.798,1.638c-0.168,0.642 -0.25,1.379 -0.25,2.212l0,5.75l-2.127,0l0,-12.927l2.002,0Z" style="fill:#0071bc;fill-rule:nonzero;"/><path d="M663.035,927.112l0,-1.875l2.175,0l0,-1.925c0,-1.049 0.305,-1.847 0.915,-2.389c0.606,-0.542 1.492,-0.811 2.66,-0.811c0.2,0 0.43,0.017 0.688,0.051c0.258,0.033 0.487,0.081 0.687,0.15l0,1.847c-0.183,-0.064 -0.381,-0.11 -0.6,-0.135c-0.216,-0.025 -0.416,-0.04 -0.6,-0.04c-0.516,0 -0.914,0.103 -1.2,0.3c-0.283,0.2 -0.423,0.586 -0.423,1.153l0,1.799l2.498,0l0,1.875l-2.498,0l0,11.051l-2.127,-0l0,-11.051l-2.175,0Z" style="fill:#0071bc;fill-rule:nonzero;"/><path d="M673.6,933.798c0.206,0.61 0.494,1.119 0.863,1.525c0.364,0.41 0.791,0.721 1.285,0.937c0.492,0.219 1.012,0.328 1.562,0.328c0.548,-0 1.069,-0.109 1.563,-0.328c0.492,-0.216 0.919,-0.527 1.287,-0.937c0.367,-0.406 0.653,-0.915 0.863,-1.525c0.21,-0.606 0.31,-1.302 0.31,-2.088c0,-0.781 -0.1,-1.477 -0.31,-2.087c-0.21,-0.606 -0.496,-1.119 -0.863,-1.536c-0.368,-0.416 -0.795,-0.735 -1.287,-0.949c-0.494,-0.217 -1.015,-0.328 -1.563,-0.328c-0.55,0 -1.07,0.111 -1.562,0.328c-0.494,0.214 -0.921,0.533 -1.285,0.949c-0.369,0.417 -0.657,0.93 -0.863,1.536c-0.21,0.61 -0.315,1.306 -0.315,2.087c0,0.786 0.105,1.482 0.315,2.088Zm-2.167,-4.748c0.269,-0.827 0.669,-1.544 1.202,-2.15c0.534,-0.61 1.192,-1.09 1.975,-1.44c0.784,-0.35 1.684,-0.525 2.7,-0.525c1.034,0 1.936,0.175 2.715,0.525c0.773,0.35 1.427,0.83 1.96,1.44c0.534,0.606 0.932,1.323 1.2,2.15c0.267,0.825 0.4,1.712 0.4,2.66c0,0.953 -0.133,1.836 -0.4,2.65c-0.268,0.817 -0.666,1.532 -1.2,2.14c-0.533,0.608 -1.187,1.081 -1.96,1.423c-0.779,0.342 -1.681,0.515 -2.715,0.515c-1.016,-0 -1.916,-0.173 -2.7,-0.515c-0.783,-0.342 -1.441,-0.815 -1.975,-1.423c-0.533,-0.608 -0.933,-1.323 -1.202,-2.14c-0.262,-0.814 -0.398,-1.697 -0.398,-2.65c0,-0.948 0.136,-1.835 0.398,-2.66Z" style="fill:#0071bc;fill-rule:nonzero;"/><path d="M688.013,925.237l-0,2.726l0.047,-0c0.517,-1.051 1.152,-1.828 1.9,-2.328c0.748,-0.497 1.7,-0.733 2.85,-0.7l0,2.25c-0.85,0 -1.575,0.119 -2.175,0.35c-0.6,0.236 -1.083,0.575 -1.45,1.025c-0.366,0.452 -0.633,0.998 -0.8,1.64c-0.166,0.64 -0.25,1.379 -0.25,2.212l0,5.751l-2.125,-0l0,-12.926l2.003,0Z" style="fill:#0071bc;fill-rule:nonzero;"/><path d="M706.533,938.163l0,-12.703l-4.598,0l0,-1.7c0.598,0 1.182,-0.045 1.75,-0.135c0.565,-0.094 1.08,-0.265 1.538,-0.512c0.456,-0.253 0.844,-0.592 1.162,-1.025c0.315,-0.434 0.534,-0.986 0.648,-1.65l1.627,-0l0,17.725l-2.127,-0Z" style="fill:#0071bc;fill-rule:nonzero;"/><path d="M715.035,924.21c0.234,-0.764 0.596,-1.427 1.09,-1.985c0.49,-0.558 1.102,-0.996 1.835,-1.315c0.734,-0.314 1.565,-0.472 2.502,-0.472c0.765,-0 1.486,0.112 2.161,0.335c0.675,0.227 1.262,0.552 1.76,0.977c0.502,0.425 0.898,0.954 1.19,1.585c0.292,0.636 0.439,1.369 0.439,2.202c0,0.782 -0.122,1.473 -0.364,2.076c-0.242,0.597 -0.565,1.135 -0.963,1.612c-0.398,0.475 -0.858,0.902 -1.375,1.287c-0.516,0.384 -1.05,0.751 -1.6,1.1c-0.548,0.334 -1.1,0.661 -1.652,0.988c-0.548,0.323 -1.054,0.671 -1.508,1.037c-0.46,0.367 -0.85,0.763 -1.177,1.186c-0.325,0.427 -0.538,0.914 -0.638,1.464l9.103,0l-0,1.876l-11.578,-0c0.084,-1.051 0.271,-1.948 0.563,-2.688c0.292,-0.742 0.662,-1.388 1.112,-1.938c0.45,-0.55 0.959,-1.033 1.525,-1.449c0.567,-0.419 1.159,-0.809 1.775,-1.175c0.75,-0.467 1.411,-0.896 1.975,-1.29c0.567,-0.39 1.038,-0.786 1.413,-1.185c0.373,-0.403 0.658,-0.834 0.85,-1.3c0.192,-0.469 0.29,-1.011 0.29,-1.626c-0,-0.483 -0.094,-0.922 -0.278,-1.314c-0.183,-0.39 -0.429,-0.727 -0.737,-1.013c-0.308,-0.281 -0.671,-0.5 -1.088,-0.647c-0.416,-0.151 -0.858,-0.228 -1.325,-0.228c-0.618,0 -1.148,0.132 -1.587,0.39c-0.442,0.258 -0.804,0.596 -1.088,1.01c-0.283,0.419 -0.485,0.89 -0.612,1.415c-0.127,0.525 -0.179,1.054 -0.163,1.587l-2.125,0c-0.05,-0.902 0.042,-1.733 0.275,-2.502Z" style="fill:#0071bc;fill-rule:nonzero;"/><path d="M730.923,931.673c0.042,0.827 0.175,1.6 0.4,2.327c0.225,0.725 0.587,1.335 1.087,1.835c0.498,0.503 1.198,0.753 2.1,0.753c0.9,-0 1.6,-0.25 2.103,-0.753c0.497,-0.5 0.86,-1.11 1.085,-1.835c0.225,-0.727 0.358,-1.5 0.4,-2.327c0.039,-0.823 0.062,-1.569 0.062,-2.238c0,-0.431 -0.004,-0.91 -0.012,-1.435c-0.011,-0.525 -0.05,-1.05 -0.125,-1.575c-0.077,-0.525 -0.183,-1.037 -0.325,-1.538c-0.142,-0.502 -0.35,-0.937 -0.627,-1.312c-0.273,-0.377 -0.619,-0.679 -1.038,-0.915c-0.414,-0.231 -0.923,-0.35 -1.523,-0.35c-0.6,0 -1.108,0.119 -1.525,0.35c-0.418,0.236 -0.764,0.538 -1.037,0.915c-0.275,0.375 -0.483,0.81 -0.625,1.312c-0.144,0.501 -0.25,1.013 -0.327,1.538c-0.073,0.525 -0.115,1.05 -0.123,1.575c-0.008,0.525 -0.013,1.004 -0.013,1.435c0,0.669 0.021,1.415 0.063,2.238Zm-2.263,-4.236c0.034,-0.7 0.117,-1.383 0.248,-2.049c0.136,-0.669 0.327,-1.3 0.577,-1.901c0.25,-0.599 0.592,-1.124 1.025,-1.574c0.434,-0.453 0.98,-0.811 1.638,-1.076c0.658,-0.268 1.444,-0.399 2.362,-0.399c0.917,-0 1.702,0.131 2.363,0.399c0.658,0.265 1.204,0.623 1.637,1.076c0.434,0.45 0.775,0.975 1.025,1.574c0.25,0.601 0.442,1.232 0.575,1.901c0.134,0.666 0.217,1.349 0.248,2.049c0.036,0.701 0.052,1.376 0.052,2.025c0,0.648 -0.016,1.325 -0.052,2.025c-0.031,0.701 -0.114,1.384 -0.248,2.05c-0.133,0.667 -0.325,1.296 -0.575,1.888c-0.25,0.59 -0.591,1.11 -1.025,1.563c-0.433,0.447 -0.975,0.804 -1.627,1.062c-0.648,0.256 -1.439,0.388 -2.373,0.388c-0.918,-0 -1.704,-0.132 -2.362,-0.388c-0.658,-0.258 -1.204,-0.615 -1.638,-1.062c-0.433,-0.453 -0.775,-0.973 -1.025,-1.563c-0.25,-0.592 -0.441,-1.221 -0.577,-1.888c-0.131,-0.666 -0.214,-1.349 -0.248,-2.05c-0.033,-0.7 -0.05,-1.377 -0.05,-2.025c0,-0.649 0.017,-1.324 0.05,-2.025Z" style="fill:#0071bc;fill-rule:nonzero;"/><path d="M752.898,929.825c-0.158,-0.577 -0.4,-1.09 -0.727,-1.54c-0.325,-0.448 -0.74,-0.806 -1.248,-1.072c-0.508,-0.267 -1.106,-0.403 -1.788,-0.403c-0.716,0 -1.325,0.144 -1.827,0.425c-0.5,0.284 -0.906,0.655 -1.223,1.115c-0.318,0.458 -0.545,0.979 -0.689,1.563c-0.142,0.583 -0.211,1.175 -0.211,1.772c0,0.636 0.075,1.248 0.223,1.84c0.152,0.59 0.39,1.11 0.713,1.562c0.325,0.45 0.746,0.813 1.267,1.088c0.514,0.275 1.137,0.413 1.872,0.413c0.732,-0 1.344,-0.142 1.838,-0.425c0.492,-0.284 0.887,-0.661 1.187,-1.125c0.3,-0.467 0.517,-1 0.65,-1.603c0.132,-0.597 0.2,-1.216 0.2,-1.848c0,-0.602 -0.081,-1.187 -0.237,-1.762Zm-7.638,-4.588l0,1.748l0.05,0c0.35,-0.714 0.9,-1.235 1.648,-1.562c0.752,-0.325 1.575,-0.488 2.477,-0.488c0.998,0 1.869,0.186 2.613,0.553c0.742,0.366 1.356,0.862 1.85,1.485c0.492,0.627 0.862,1.348 1.112,2.165c0.25,0.814 0.375,1.681 0.375,2.6c0,0.916 -0.12,1.783 -0.362,2.599c-0.244,0.815 -0.608,1.528 -1.102,2.138c-0.49,0.606 -1.106,1.085 -1.846,1.435c-0.746,0.35 -1.608,0.528 -2.59,0.528c-0.316,-0 -0.67,-0.034 -1.062,-0.1c-0.394,-0.069 -0.779,-0.175 -1.163,-0.326c-0.383,-0.15 -0.745,-0.354 -1.087,-0.614c-0.342,-0.256 -0.629,-0.577 -0.863,-0.96l-0.05,-0l0,6.649l-2.127,0l0,-17.85l2.127,0Z" style="fill:#0071bc;fill-rule:nonzero;"/><path d="M756.858,925.237l2.727,0l3.098,4.523l3.225,-4.523l2.552,0l-4.452,5.948l5,6.978l-2.725,-0l-3.6,-5.35l-3.598,5.35l-2.577,-0l4.852,-6.803l-4.502,-6.123Z" style="fill:#0071bc;fill-rule:nonzero;"/><path d="M789.985,930.985l0,1.702l-5.45,0l0,5.476l-1.7,-0l0,-5.476l-5.45,0l0,-1.702l5.45,0l0,-5.473l1.7,0l0,5.473l5.45,0Z" style="fill:#0071bc;fill-rule:nonzero;"/></g></svg>